<?xml version="1.0" encoding="utf-8"?>
<!-- Generator: Adobe Illustrator 18.1.1, SVG Export Plug-In . SVG Version: 6.00 Build 0)  -->
<!DOCTYPE svg PUBLIC "-//W3C//DTD SVG 1.1//EN" "http://www.w3.org/Graphics/SVG/1.1/DTD/svg11.dtd">
<svg version="1.1" id="Layer_1" xmlns="http://www.w3.org/2000/svg" xmlns:xlink="http://www.w3.org/1999/xlink" x="0px" y="0px"
	 viewBox="0 0 400 300" enable-background="new 0 0 400 300" xml:space="preserve">
<g>
	<g>
		<path fill="#C9C9C9" d="M261.4,60.7c0,1.1-0.7,2.1-1.5,2.1H95.3c-0.8,0-1.5-0.9-1.5-2.1V47.5c0-1.1,0.7-2.1,1.5-2.1h164.5
			c0.8,0,1.5,0.9,1.5,2.1L261.4,60.7L261.4,60.7z"/>
		<g>
			<circle fill="#9D9E9D" cx="99.3" cy="50.3" r="2.3"/>
			<circle fill="#9D9E9D" cx="105.7" cy="50.3" r="2.3"/>
			<circle fill="#9D9E9D" cx="112" cy="50.3" r="2.3"/>
		</g>
	</g>
	<path fill="#FAF8DA" stroke="#FAF8DA" stroke-width="0.4" stroke-miterlimit="10" d="M261.4,54.7v193.4c0,0.7-0.2,1.2-0.5,1.2H94.3
		c-0.3,0-0.5-0.5-0.5-1.2V55.4"/>
	<rect x="107.3" y="64.1" fill="none" width="137.7" height="19.7"/>
	<g enable-background="new    ">
		<path fill="#205D76" d="M122.5,71.9h-1.8l-1-3.9c0-0.1-0.1-0.4-0.2-0.9c-0.1-0.4-0.1-0.7-0.2-0.9c0,0.2-0.1,0.5-0.2,0.9
			c-0.1,0.4-0.1,0.7-0.2,0.9l-1,3.8h-1.8l-1.9-7.3h1.5l0.9,4c0.2,0.7,0.3,1.4,0.4,1.9c0-0.2,0.1-0.5,0.1-0.9
			c0.1-0.4,0.1-0.7,0.2-0.9l1.1-4.1h1.5l1.1,4.1c0,0.2,0.1,0.5,0.2,0.8s0.1,0.7,0.2,1c0-0.3,0.1-0.6,0.2-1c0.1-0.4,0.1-0.7,0.2-0.9
			l0.9-4h1.5L122.5,71.9z"/>
		<path fill="#205D76" d="M127.7,72c-0.9,0-1.6-0.2-2.1-0.7c-0.5-0.5-0.8-1.2-0.8-2.1c0-0.9,0.2-1.7,0.7-2.2s1.1-0.8,2-0.8
			c0.8,0,1.4,0.2,1.9,0.7s0.7,1.1,0.7,1.9v0.7h-3.6c0,0.4,0.1,0.8,0.4,1s0.6,0.4,1,0.4c0.3,0,0.7,0,1-0.1c0.3-0.1,0.6-0.2,0.9-0.3
			v1.2c-0.3,0.1-0.6,0.2-0.9,0.3C128.5,72,128.1,72,127.7,72z M127.5,67.3c-0.3,0-0.6,0.1-0.8,0.3c-0.2,0.2-0.3,0.5-0.3,0.9h2.1
			c0-0.4-0.1-0.7-0.3-0.9C128.1,67.4,127.8,67.3,127.5,67.3z"/>
		<path fill="#205D76" d="M132.8,71.9h-1.5v-7.8h1.5V71.9z"/>
		<path fill="#205D76" d="M136.7,72c-1.7,0-2.6-1-2.6-2.9c0-1,0.2-1.7,0.7-2.2c0.5-0.5,1.2-0.8,2-0.8c0.6,0,1.2,0.1,1.7,0.4
			l-0.5,1.2c-0.2-0.1-0.5-0.2-0.7-0.2c-0.2-0.1-0.4-0.1-0.6-0.1c-0.8,0-1.2,0.6-1.2,1.7c0,1.1,0.4,1.6,1.2,1.6c0.3,0,0.6,0,0.8-0.1
			c0.3-0.1,0.5-0.2,0.8-0.4v1.3c-0.2,0.2-0.5,0.3-0.8,0.3C137.4,72,137,72,136.7,72z"/>
		<path fill="#205D76" d="M144.8,69.1c0,0.9-0.2,1.6-0.7,2.1c-0.5,0.5-1.2,0.8-2,0.8c-0.5,0-1-0.1-1.4-0.4c-0.4-0.2-0.7-0.6-0.9-1
			c-0.2-0.4-0.3-1-0.3-1.5c0-0.9,0.2-1.6,0.7-2.1s1.2-0.8,2-0.8c0.5,0,1,0.1,1.4,0.4s0.7,0.6,0.9,1C144.7,68,144.8,68.5,144.8,69.1z
			 M140.9,69.1c0,0.6,0.1,1,0.3,1.3c0.2,0.3,0.5,0.4,0.9,0.4c0.4,0,0.7-0.1,0.9-0.4c0.2-0.3,0.3-0.7,0.3-1.3c0-0.6-0.1-1-0.3-1.3
			s-0.5-0.4-0.9-0.4c-0.4,0-0.7,0.1-0.9,0.4S140.9,68.5,140.9,69.1z"/>
		<path fill="#205D76" d="M151.1,71.9h-1.5v-3.3c0-0.4-0.1-0.7-0.2-0.9c-0.1-0.2-0.3-0.3-0.6-0.3c-0.4,0-0.7,0.1-0.9,0.4
			c-0.2,0.3-0.3,0.8-0.3,1.4v2.6H146v-5.6h1.2l0.2,0.7h0.1c0.2-0.3,0.4-0.5,0.7-0.6c0.3-0.1,0.6-0.2,1-0.2c0.8,0,1.4,0.3,1.7,0.8
			h0.1c0.2-0.3,0.4-0.5,0.7-0.6c0.3-0.1,0.6-0.2,1-0.2c0.6,0,1.1,0.2,1.4,0.5c0.3,0.3,0.5,0.9,0.5,1.6v3.7H153v-3.3
			c0-0.4-0.1-0.7-0.2-0.9c-0.1-0.2-0.3-0.3-0.6-0.3c-0.4,0-0.7,0.1-0.8,0.4c-0.2,0.3-0.3,0.7-0.3,1.3V71.9z"/>
		<path fill="#205D76" d="M158.7,72c-0.9,0-1.6-0.2-2.1-0.7c-0.5-0.5-0.8-1.2-0.8-2.1c0-0.9,0.2-1.7,0.7-2.2s1.1-0.8,2-0.8
			c0.8,0,1.4,0.2,1.9,0.7s0.7,1.1,0.7,1.9v0.7h-3.6c0,0.4,0.1,0.8,0.4,1s0.6,0.4,1,0.4c0.3,0,0.7,0,1-0.1c0.3-0.1,0.6-0.2,0.9-0.3
			v1.2c-0.3,0.1-0.6,0.2-0.9,0.3C159.5,72,159.1,72,158.7,72z M158.5,67.3c-0.3,0-0.6,0.1-0.8,0.3c-0.2,0.2-0.3,0.5-0.3,0.9h2.1
			c0-0.4-0.1-0.7-0.3-0.9C159,67.4,158.8,67.3,158.5,67.3z"/>
		<path fill="#205D76" d="M167.8,71.9h-1.6v-6h-2v-1.3h5.5v1.3h-2V71.9z"/>
		<path fill="#205D76" d="M176,69.1c0,0.9-0.2,1.6-0.7,2.1c-0.5,0.5-1.2,0.8-2,0.8c-0.5,0-1-0.1-1.4-0.4c-0.4-0.2-0.7-0.6-0.9-1
			c-0.2-0.4-0.3-1-0.3-1.5c0-0.9,0.2-1.6,0.7-2.1s1.2-0.8,2-0.8c0.5,0,1,0.1,1.4,0.4s0.7,0.6,0.9,1C175.8,68,176,68.5,176,69.1z
			 M172.1,69.1c0,0.6,0.1,1,0.3,1.3c0.2,0.3,0.5,0.4,0.9,0.4c0.4,0,0.7-0.1,0.9-0.4c0.2-0.3,0.3-0.7,0.3-1.3c0-0.6-0.1-1-0.3-1.3
			s-0.5-0.4-0.9-0.4c-0.4,0-0.7,0.1-0.9,0.4S172.1,68.5,172.1,69.1z"/>
		<path fill="#205D76" d="M182.8,71.9h-1.6v-6h-2v-1.3h5.5v1.3h-2V71.9z"/>
		<path fill="#205D76" d="M189.8,71.9l-0.2-0.7h-0.1c-0.2,0.3-0.4,0.5-0.7,0.6c-0.3,0.1-0.6,0.2-1,0.2c-0.7,0-1.2-0.2-1.5-0.5
			c-0.3-0.4-0.5-0.9-0.5-1.5v-3.7h1.5v3.3c0,0.4,0.1,0.7,0.2,0.9s0.4,0.3,0.7,0.3c0.4,0,0.7-0.1,0.9-0.4c0.2-0.3,0.3-0.8,0.3-1.4
			v-2.6h1.5v5.6H189.8z"/>
		<path fill="#205D76" d="M195,70.8c0.3,0,0.6-0.1,1-0.2v1.1c-0.4,0.2-0.9,0.3-1.4,0.3c-0.6,0-1.1-0.2-1.3-0.5
			c-0.3-0.3-0.4-0.8-0.4-1.4v-2.7H192v-0.6l0.8-0.5l0.4-1.2h1v1.2h1.6v1.2h-1.6v2.7c0,0.2,0.1,0.4,0.2,0.5
			C194.6,70.7,194.8,70.8,195,70.8z"/>
		<path fill="#205D76" d="M201,70.2c0,0.6-0.2,1-0.6,1.3c-0.4,0.3-1,0.5-1.8,0.5c-0.4,0-0.8,0-1-0.1s-0.6-0.1-0.8-0.2v-1.3
			c0.3,0.1,0.6,0.2,1,0.3c0.4,0.1,0.7,0.1,0.9,0.1c0.6,0,0.8-0.2,0.8-0.5c0-0.1,0-0.2-0.1-0.3c-0.1-0.1-0.2-0.2-0.4-0.3
			c-0.2-0.1-0.4-0.2-0.7-0.3c-0.4-0.2-0.7-0.3-1-0.5c-0.2-0.2-0.4-0.3-0.4-0.5c-0.1-0.2-0.1-0.4-0.1-0.7c0-0.5,0.2-0.9,0.6-1.2
			s0.9-0.4,1.6-0.4c0.7,0,1.3,0.1,2,0.4l-0.5,1.1c-0.3-0.1-0.5-0.2-0.8-0.3s-0.5-0.1-0.7-0.1c-0.5,0-0.7,0.1-0.7,0.4
			c0,0.1,0.1,0.3,0.2,0.4c0.1,0.1,0.5,0.2,1,0.4c0.4,0.2,0.8,0.3,1,0.5c0.2,0.2,0.4,0.3,0.5,0.5C200.9,69.7,201,70,201,70.2z"/>
		<path fill="#205D76" d="M203.8,68.8h-1.9v-1.1h1.9v-2h1.1v2h1.9v1.1h-1.9v1.9h-1.1V68.8z"/>
		<path fill="#205D76" d="M213.7,71.9h-1.6v-6h-2v-1.3h5.5v1.3h-2V71.9z"/>
		<path fill="#205D76" d="M221.8,69.1c0,0.9-0.2,1.6-0.7,2.1c-0.5,0.5-1.2,0.8-2,0.8c-0.5,0-1-0.1-1.4-0.4c-0.4-0.2-0.7-0.6-0.9-1
			c-0.2-0.4-0.3-1-0.3-1.5c0-0.9,0.2-1.6,0.7-2.1c0.5-0.5,1.2-0.8,2-0.8c0.5,0,1,0.1,1.4,0.4s0.7,0.6,0.9,1
			C221.7,68,221.8,68.5,221.8,69.1z M217.9,69.1c0,0.6,0.1,1,0.3,1.3c0.2,0.3,0.5,0.4,0.9,0.4c0.4,0,0.7-0.1,0.9-0.4
			c0.2-0.3,0.3-0.7,0.3-1.3c0-0.6-0.1-1-0.3-1.3s-0.5-0.4-0.9-0.4c-0.4,0-0.7,0.1-0.9,0.4S217.9,68.5,217.9,69.1z"/>
		<path fill="#205D76" d="M227.7,71.9l-0.4-2l-0.6-2.5h0l-1,4.4H224l-1.6-5.6h1.5l0.6,2.5c0.1,0.4,0.2,1.1,0.3,1.8h0
			c0-0.3,0.1-0.7,0.2-1.2l0.1-0.4l0.7-2.7h1.7l0.7,2.7c0,0.1,0,0.2,0.1,0.3c0,0.1,0.1,0.3,0.1,0.5c0,0.2,0.1,0.3,0.1,0.5
			c0,0.2,0,0.3,0,0.4h0c0-0.2,0.1-0.6,0.2-1s0.1-0.7,0.2-0.9l0.7-2.5h1.5l-1.6,5.6H227.7z"/>
		<path fill="#205D76" d="M237.1,71.9h-1.5v-3.3c0-0.4-0.1-0.7-0.2-0.9c-0.1-0.2-0.4-0.3-0.7-0.3c-0.4,0-0.7,0.1-0.9,0.4
			c-0.2,0.3-0.3,0.8-0.3,1.4v2.6h-1.5v-5.6h1.2l0.2,0.7h0.1c0.2-0.3,0.4-0.5,0.7-0.6s0.6-0.2,1-0.2c0.7,0,1.1,0.2,1.5,0.5
			c0.3,0.4,0.5,0.9,0.5,1.5V71.9z"/>
	</g>
	<g>
		<g>
			<path fill="#FFC122" d="M183.9,80.5c9,0,17.9,0,26.9,0c4.7,0,9.5,0,14.1,0c0.4,0,0.9-0.1,1.3,0c0.5,0.1-0.3-0.6-0.1-0.1
				c0.3,1,0,2.7,0,3.7c0,11.2,0,22.4,0,33.5c0,1.5-0.2,3.3,0,4.8c0.1,1.1,0.3,0.5,0.1,0.5c-1.9,0.5-4.3,0-6.3,0c-22,0-44,0-66,0
				c-8.7,0-17.3,0-25.9,0c-0.9,0-1.8-0.1-2.7,0c-0.9,0.1-0.3,0.2-0.3,0.1c-0.3-1.1,0-2.7,0-3.9c0-2.5,0-5,0-7.5c0-6.1,0-12.1,0-18.1
				c0-4.1,0.4-8.5,0-12.7c0-0.1-0.1-0.6,0-0.7c-0.3,0.6,0,0.3,0.7,0.3c2.1,0.3,4.3,0,6.4,0c5.8,0,11.6,0,17.5,0c1.1,0,2.3,0,3.5,0
				c0.5,0,0.5-0.7,0-0.7c-9.5,0-18.9,0-28.4,0c-0.2,0-0.3,0.1-0.3,0.3c0,14.3,0,28.7,0,43.1c0,0.2,0.1,0.3,0.3,0.3
				c29.7,0,59.3,0,89,0c4.3,0,8.5,0,12.8,0c0.2,0,0.3-0.1,0.3-0.3c0-14.3,0-28.7,0-43.1c0-0.2-0.1-0.3-0.3-0.3
				c-14.2,0-28.4,0-42.7,0C183.5,79.9,183.5,80.5,183.9,80.5L183.9,80.5z"/>
		</g>
	</g>
	<line fill="none" stroke="#FFC122" stroke-width="0.3043" stroke-miterlimit="10" x1="163.2" y1="119.9" x2="169.3" y2="119.9"/>
	<line fill="none" stroke="#FFC122" stroke-width="0.3043" stroke-miterlimit="10" x1="163.2" y1="120" x2="169.3" y2="120"/>
	<circle fill="#205D76" cx="166.4" cy="82.2" r="0.3"/>
	<circle fill="#205D76" cx="166.4" cy="85.8" r="0.4"/>
	<g enable-background="new    ">
		<path fill="#205D76" d="M168.4,84.5c0.1,0,0.1,0,0.2,0v0.2c0,0-0.1,0-0.1,0s-0.1,0-0.1,0c-0.2,0-0.3-0.1-0.3-0.3v-0.5h-0.1v-0.1
			l0.1-0.1l0.1-0.2h0.1v0.2h0.3v0.2h-0.3v0.5c0,0.1,0,0.1,0,0.1C168.3,84.5,168.3,84.5,168.4,84.5z"/>
		<path fill="#205D76" d="M169.4,84.6l0-0.1h0c0,0-0.1,0.1-0.1,0.1s-0.1,0-0.2,0c-0.1,0-0.2,0-0.3-0.1s-0.1-0.2-0.1-0.3v-0.7h0.2
			v0.6c0,0.1,0,0.1,0,0.2c0,0,0.1,0.1,0.1,0.1c0.1,0,0.2,0,0.2-0.1c0-0.1,0.1-0.1,0.1-0.3v-0.5h0.2v1H169.4z"/>
		<path fill="#205D76" d="M170.3,84.5c0.1,0,0.1,0,0.2,0v0.2c0,0-0.1,0-0.1,0s-0.1,0-0.1,0c-0.2,0-0.3-0.1-0.3-0.3v-0.5h-0.1v-0.1
			l0.1-0.1l0.1-0.2h0.1v0.2h0.3v0.2h-0.3v0.5c0,0.1,0,0.1,0,0.1C170.2,84.5,170.2,84.5,170.3,84.5z"/>
		<path fill="#205D76" d="M171.3,84.3c0,0.1,0,0.2-0.1,0.2c-0.1,0.1-0.2,0.1-0.3,0.1c-0.1,0-0.2,0-0.3-0.1v-0.2
			c0.1,0.1,0.2,0.1,0.3,0.1c0.1,0,0.2,0,0.2-0.1c0,0,0,0,0-0.1c0,0,0,0-0.1-0.1c0,0-0.1,0-0.1-0.1c-0.1,0-0.2-0.1-0.2-0.1
			s-0.1-0.1-0.1-0.2c0-0.1,0-0.2,0.1-0.2c0.1,0,0.2-0.1,0.3-0.1c0.1,0,0.2,0,0.3,0.1l-0.1,0.2c-0.1,0-0.2-0.1-0.3-0.1
			c-0.1,0-0.2,0-0.2,0.1c0,0,0,0.1,0,0.1s0.1,0.1,0.2,0.1c0.1,0,0.1,0.1,0.2,0.1s0.1,0.1,0.1,0.1C171.3,84.2,171.3,84.3,171.3,84.3z
			"/>
	</g>
	<g>
		<path fill="#205D76" stroke="#205D76" stroke-width="0.155" stroke-miterlimit="10" d="M171.8,83.7V84h0.3v0.1h-0.3v0.3h-0.1v-0.3
			h-0.3V84h0.3v-0.3H171.8z"/>
	</g>
	<path fill="#205D76" stroke="#205D76" stroke-width="0.191" stroke-miterlimit="10" d="M173.2,100.9c0,0.9-3.1,0.8-6.8,0.8
		c-3.8,0-6.8,0.1-6.8-0.8c0-0.9,3.1-1.6,6.8-1.6C170.1,99.3,173.2,100.1,173.2,100.9z"/>
	<polygon fill="#FF5774" points="170.1,111.5 162.7,111.5 163.3,110.1 169.4,110.1 	"/>
	<line fill="none" stroke="#FFC122" stroke-width="0.3043" stroke-miterlimit="10" x1="164.4" y1="117.3" x2="164.4" y2="121.1"/>
	<line fill="none" stroke="#FFC122" stroke-width="0.3043" stroke-miterlimit="10" x1="165.7" y1="117.3" x2="165.7" y2="121.1"/>
	<line fill="none" stroke="#FFC122" stroke-width="0.3043" stroke-miterlimit="10" x1="167" y1="117.3" x2="167" y2="121.1"/>
	<line fill="none" stroke="#FFC122" stroke-width="0.3043" stroke-miterlimit="10" x1="168.3" y1="117.3" x2="168.3" y2="121.1"/>
	<line fill="none" stroke="#FFC122" stroke-width="0.3043" stroke-miterlimit="10" x1="163.1" y1="119.9" x2="169.5" y2="119.9"/>
	<line fill="none" stroke="#FFC122" stroke-width="0.3043" stroke-miterlimit="10" x1="163.1" y1="118.3" x2="169.6" y2="118.3"/>
	<g>
		<path fill="#FFC122" d="M164.3,117c0-0.1,0.1-0.1,0.1,0c0,0.1,0.1,0.1,0.1,0.2c0,0.1,0,0.1-0.1,0.1c-0.1,0-0.2,0-0.2,0
			c-0.1,0-0.1-0.1-0.1-0.1S164.3,117.1,164.3,117z"/>
		<path fill="none" stroke="#FFC122" stroke-width="0.188" stroke-miterlimit="10" d="M164.3,117c0-0.1,0.1-0.1,0.1,0
			c0,0.1,0.1,0.1,0.1,0.2c0,0.1,0,0.1-0.1,0.1c-0.1,0-0.2,0-0.2,0c-0.1,0-0.1-0.1-0.1-0.1S164.3,117.1,164.3,117z"/>
	</g>
	<g>
		<path fill="#FFC122" d="M166.9,117c0-0.1,0.1-0.1,0.1,0c0,0.1,0.1,0.1,0.1,0.2c0,0.1,0,0.1-0.1,0.1c-0.1,0-0.2,0-0.2,0
			c-0.1,0-0.1-0.1-0.1-0.1C166.9,117.1,166.9,117.1,166.9,117z"/>
		<path fill="none" stroke="#FFC122" stroke-width="0.188" stroke-miterlimit="10" d="M166.9,117c0-0.1,0.1-0.1,0.1,0
			c0,0.1,0.1,0.1,0.1,0.2c0,0.1,0,0.1-0.1,0.1c-0.1,0-0.2,0-0.2,0c-0.1,0-0.1-0.1-0.1-0.1C166.9,117.1,166.9,117.1,166.9,117z"/>
	</g>
	<g>
		<path fill="#FFC122" d="M165.6,117c0-0.1,0.1-0.1,0.1,0c0,0.1,0.1,0.1,0.1,0.2c0,0.1,0,0.1-0.1,0.1c-0.1,0-0.2,0-0.2,0
			c-0.1,0-0.1-0.1-0.1-0.1C165.5,117.1,165.6,117.1,165.6,117z"/>
		<path fill="none" stroke="#FFC122" stroke-width="0.188" stroke-miterlimit="10" d="M165.6,117c0-0.1,0.1-0.1,0.1,0
			c0,0.1,0.1,0.1,0.1,0.2c0,0.1,0,0.1-0.1,0.1c-0.1,0-0.2,0-0.2,0c-0.1,0-0.1-0.1-0.1-0.1C165.5,117.1,165.6,117.1,165.6,117z"/>
	</g>
	<g>
		<path fill="#FFC122" d="M168.3,117c0-0.1,0.1-0.1,0.1,0c0,0.1,0.1,0.1,0.1,0.2c0,0.1,0,0.1-0.1,0.1s-0.2,0-0.2,0s-0.1-0.1-0.1-0.1
			C168.1,117.1,168.2,117.1,168.3,117z"/>
		<path fill="none" stroke="#FFC122" stroke-width="0.188" stroke-miterlimit="10" d="M168.3,117c0-0.1,0.1-0.1,0.1,0
			c0,0.1,0.1,0.1,0.1,0.2c0,0.1,0,0.1-0.1,0.1s-0.2,0-0.2,0s-0.1-0.1-0.1-0.1C168.1,117.1,168.2,117.1,168.3,117z"/>
	</g>
	<path fill="#FFC122" d="M259.4,250.5H95.9c-1.1,0-2-0.9-2-2v-8.8c0-1.1,0.9-2,2-2h163.5c1.1,0,2,0.9,2,2v8.8
		C261.4,249.7,260.5,250.5,259.4,250.5z"/>
	<rect x="93.9" y="234.9" fill="#FAF8DA" width="167.5" height="6.5"/>
	<g>
		<path fill="#FFFFFF" d="M145,246.9c-0.1,0.1-0.3,0.1-0.6,0.1c-0.7,0-1.2-0.4-1.2-1.2c0-0.7,0.5-1.3,1.3-1.3c0.3,0,0.5,0.1,0.6,0.1
			L145,245c-0.1-0.1-0.3-0.1-0.5-0.1c-0.5,0-0.9,0.3-0.9,1c0,0.6,0.3,0.9,0.9,0.9c0.2,0,0.4-0.1,0.5-0.1L145,246.9z"/>
		<path fill="#FFFFFF" d="M145.3,245.8c0-0.2,0-0.4,0-0.5h0.3v0.3l0,0c0.1-0.2,0.3-0.4,0.5-0.4c0.1,0,0.1,0,0.1,0v0.3
			c0,0-0.1,0-0.1,0c-0.2,0-0.4,0.1-0.4,0.4c0,0.1,0,0.1,0,0.1v0.9h-0.3V245.8z"/>
		<path fill="#FFFFFF" d="M146.7,246.2c0,0.4,0.3,0.6,0.6,0.6c0.2,0,0.3-0.1,0.5-0.1l0.1,0.2c-0.1,0.1-0.3,0.1-0.6,0.1
			c-0.5,0-0.9-0.3-0.9-0.9s0.3-0.9,0.8-0.9c0.5,0,0.7,0.5,0.7,0.8c0,0.1,0,0.1,0,0.1L146.7,246.2L146.7,246.2z M147.6,246
			c0-0.2-0.1-0.5-0.4-0.5s-0.5,0.3-0.5,0.5H147.6z"/>
		<path fill="#FFFFFF" d="M149.2,247v-0.2l0,0c-0.1,0.1-0.3,0.3-0.5,0.3c-0.3,0-0.5-0.3-0.5-0.5c0-0.4,0.4-0.7,1-0.7v-0.1
			c0-0.1-0.1-0.4-0.4-0.4c-0.1,0-0.3,0.1-0.5,0.1l-0.1-0.2c0.1-0.1,0.3-0.1,0.5-0.1c0.5,0,0.7,0.3,0.7,0.7v0.7c0,0.1,0,0.3,0,0.4
			L149.2,247L149.2,247z M149.1,246.1c-0.3,0-0.7,0.1-0.7,0.4c0,0.2,0.1,0.3,0.3,0.3c0.2,0,0.3-0.1,0.4-0.3v-0.1L149.1,246.1
			L149.1,246.1z"/>
		<path fill="#FFFFFF" d="M150.3,244.8v0.5h0.5v0.3h-0.5v0.9c0,0.2,0.1,0.3,0.3,0.3c0.1,0,0.1,0,0.2,0v0.3c-0.1,0-0.1,0.1-0.3,0.1
			s-0.3-0.1-0.3-0.1c-0.1-0.1-0.1-0.3-0.1-0.5v-0.9h-0.3v-0.3h0.3v-0.4L150.3,244.8z"/>
		<path fill="#FFFFFF" d="M151.3,246.2c0,0.4,0.3,0.6,0.6,0.6c0.2,0,0.3-0.1,0.5-0.1l0.1,0.2c-0.1,0.1-0.3,0.1-0.6,0.1
			c-0.5,0-0.9-0.3-0.9-0.9s0.3-0.9,0.8-0.9c0.5,0,0.7,0.5,0.7,0.8c0,0.1,0,0.1,0,0.1L151.3,246.2L151.3,246.2z M152.2,246
			c0-0.2-0.1-0.5-0.4-0.5s-0.5,0.3-0.5,0.5H152.2z"/>
		<path fill="#FFFFFF" d="M154.4,244.5v2.1c0,0.1,0,0.3,0,0.5h-0.3v-0.3l0,0c-0.1,0.2-0.3,0.3-0.6,0.3c-0.4,0-0.7-0.3-0.7-0.9
			c0-0.6,0.3-0.9,0.8-0.9c0.3,0,0.5,0.1,0.5,0.3l0,0v-1L154.4,244.5L154.4,244.5z M154.1,246c0-0.1,0-0.1,0-0.1
			c-0.1-0.2-0.2-0.3-0.5-0.3c-0.3,0-0.5,0.3-0.5,0.7c0,0.3,0.2,0.7,0.5,0.7c0.2,0,0.4-0.1,0.5-0.4c0-0.1,0-0.1,0-0.1V246z"/>
		<path fill="#FFFFFF" d="M155.7,245.3l0.2,0.9c0.1,0.2,0.1,0.4,0.1,0.5l0,0c0.1-0.2,0.1-0.3,0.1-0.5l0.3-0.9h0.3l0.3,0.9
			c0.1,0.2,0.1,0.4,0.1,0.5l0,0c0-0.2,0.1-0.3,0.1-0.5l0.3-0.9h0.3l-0.5,1.7h-0.3l-0.3-0.8c-0.1-0.2-0.1-0.3-0.1-0.5l0,0
			c-0.1,0.2-0.1,0.4-0.1,0.6l-0.3,0.8H156l-0.5-1.7L155.7,245.3L155.7,245.3z"/>
		<path fill="#FFFFFF" d="M158.6,244.8c0,0.1-0.1,0.2-0.2,0.2s-0.2-0.1-0.2-0.2s0.1-0.2,0.2-0.2
			C158.5,244.6,158.6,244.7,158.6,244.8z M158.3,247v-1.7h0.3v1.7H158.3z"/>
		<path fill="#FFFFFF" d="M159.5,244.8v0.5h0.5v0.3h-0.5v0.9c0,0.2,0.1,0.3,0.3,0.3c0.1,0,0.1,0,0.2,0v0.3c-0.1,0-0.1,0.1-0.3,0.1
			s-0.3-0.1-0.3-0.1c-0.1-0.1-0.1-0.3-0.1-0.5v-0.9h-0.3v-0.3h0.3v-0.4L159.5,244.8z"/>
		<path fill="#FFFFFF" d="M160.3,244.5h0.3v1.1l0,0c0.1-0.1,0.1-0.1,0.2-0.2c0.1-0.1,0.2-0.1,0.3-0.1c0.2,0,0.6,0.1,0.6,0.7v1h-0.3
			v-1c0-0.3-0.1-0.5-0.4-0.5c-0.2,0-0.3,0.1-0.4,0.3c0,0.1,0,0.1,0,0.1v1.1h-0.3V244.5L160.3,244.5z"/>
		<path fill="#FFFFFF" d="M163.1,246.2c0,0.4,0.3,0.6,0.6,0.6c0.2,0,0.3-0.1,0.5-0.1l0.1,0.2c-0.1,0.1-0.3,0.1-0.6,0.1
			c-0.5,0-0.9-0.3-0.9-0.9s0.3-0.9,0.8-0.9c0.5,0,0.7,0.5,0.7,0.8c0,0.1,0,0.1,0,0.1L163.1,246.2L163.1,246.2z M164.1,246
			c0-0.2-0.1-0.5-0.4-0.5s-0.5,0.3-0.5,0.5H164.1z"/>
		<path fill="#FFFFFF" d="M164.7,245.7c0-0.2,0-0.3,0-0.5h0.3v0.3l0,0c0.1-0.1,0.3-0.3,0.6-0.3c0.3,0,0.6,0.1,0.6,0.7v1h-0.3V246
			c0-0.3-0.1-0.5-0.4-0.5c-0.2,0-0.3,0.1-0.4,0.3c0,0.1,0,0.1,0,0.1v1h-0.3L164.7,245.7L164.7,245.7z"/>
		<path fill="#FFFFFF" d="M167.1,244.8v0.5h0.5v0.3h-0.5v0.9c0,0.2,0.1,0.3,0.3,0.3c0.1,0,0.1,0,0.2,0v0.3c-0.1,0-0.1,0.1-0.3,0.1
			s-0.3-0.1-0.3-0.1c-0.1-0.1-0.1-0.3-0.1-0.5v-0.9h-0.3v-0.3h0.3v-0.4L167.1,244.8z"/>
		<path fill="#FFFFFF" d="M167.9,244.5h0.3v1.1l0,0c0.1-0.1,0.1-0.1,0.2-0.2c0.1-0.1,0.2-0.1,0.3-0.1c0.2,0,0.6,0.1,0.6,0.7v1H169
			v-1c0-0.3-0.1-0.5-0.4-0.5c-0.2,0-0.3,0.1-0.4,0.3c0,0.1,0,0.1,0,0.1v1.1h-0.3V244.5L167.9,244.5z"/>
		<path fill="#FFFFFF" d="M171.3,246.5c0,0.2,0,0.3,0,0.5H171v-0.3l0,0c-0.1,0.1-0.3,0.3-0.6,0.3c-0.3,0-0.6-0.1-0.6-0.7v-1h0.3v0.9
			c0,0.3,0.1,0.5,0.4,0.5c0.2,0,0.3-0.1,0.4-0.3c0-0.1,0-0.1,0-0.1v-1.1h0.3L171.3,246.5L171.3,246.5z"/>
		<path fill="#FFFFFF" d="M171.7,246.7c0.1,0.1,0.3,0.1,0.4,0.1c0.2,0,0.3-0.1,0.3-0.3s-0.1-0.2-0.3-0.3c-0.3-0.1-0.5-0.3-0.5-0.5
			c0-0.3,0.2-0.5,0.6-0.5c0.2,0,0.3,0.1,0.4,0.1l-0.1,0.2c-0.1-0.1-0.2-0.1-0.3-0.1c-0.2,0-0.3,0.1-0.3,0.3c0,0.1,0.1,0.2,0.3,0.3
			c0.3,0.1,0.5,0.3,0.5,0.5c0,0.3-0.3,0.5-0.7,0.5c-0.2,0-0.3-0.1-0.5-0.1L171.7,246.7z"/>
		<path fill="#FFFFFF" d="M173.5,244.8c0,0.1-0.1,0.2-0.2,0.2c-0.1,0-0.2-0.1-0.2-0.2s0.1-0.2,0.2-0.2
			C173.5,244.6,173.5,244.7,173.5,244.8z M173.2,247v-1.7h0.3v1.7H173.2z"/>
		<path fill="#FFFFFF" d="M175,247v-0.2l0,0c-0.1,0.1-0.3,0.3-0.5,0.3c-0.3,0-0.5-0.3-0.5-0.5c0-0.4,0.4-0.7,1-0.7v-0.1
			c0-0.1-0.1-0.4-0.4-0.4c-0.1,0-0.3,0.1-0.5,0.1l-0.1-0.2c0.1-0.1,0.3-0.1,0.5-0.1c0.5,0,0.7,0.3,0.7,0.7v0.7c0,0.1,0,0.3,0,0.4
			L175,247L175,247z M174.9,246.1c-0.3,0-0.7,0.1-0.7,0.4c0,0.2,0.1,0.3,0.3,0.3c0.2,0,0.3-0.1,0.4-0.3v-0.1L174.9,246.1
			L174.9,246.1z"/>
		<path fill="#FFFFFF" d="M175.7,246.7c0.1,0.1,0.3,0.1,0.4,0.1c0.2,0,0.3-0.1,0.3-0.3s-0.1-0.2-0.3-0.3c-0.3-0.1-0.5-0.3-0.5-0.5
			c0-0.3,0.2-0.5,0.6-0.5c0.2,0,0.3,0.1,0.4,0.1l-0.1,0.2c-0.1-0.1-0.2-0.1-0.3-0.1c-0.2,0-0.3,0.1-0.3,0.3c0,0.1,0.1,0.2,0.3,0.3
			c0.3,0.1,0.5,0.3,0.5,0.5c0,0.3-0.3,0.5-0.7,0.5c-0.2,0-0.3-0.1-0.5-0.1L175.7,246.7z"/>
		<path fill="#FFFFFF" d="M177.1,245.7c0-0.2,0-0.3,0-0.5h0.3v0.3l0,0c0.1-0.1,0.3-0.3,0.5-0.3s0.4,0.1,0.5,0.3l0,0
			c0.1-0.1,0.1-0.2,0.2-0.2c0.1-0.1,0.2-0.1,0.4-0.1c0.2,0,0.5,0.1,0.5,0.7v1h-0.2V246c0-0.3-0.1-0.5-0.4-0.5
			c-0.2,0-0.3,0.1-0.4,0.3c0,0.1,0,0.1,0,0.1v1.1h-0.3V246c0-0.3-0.1-0.5-0.3-0.5c-0.2,0-0.3,0.1-0.4,0.3c0,0.1,0,0.1,0,0.1v1.1
			h-0.3L177.1,245.7L177.1,245.7z"/>
		<path fill="#FFFFFF" d="M180.9,247c0-0.1,0-0.3,0-0.5v-2.1h0.3v1.1l0,0c0.1-0.2,0.3-0.3,0.6-0.3c0.4,0,0.7,0.3,0.7,0.9
			c0,0.6-0.4,0.9-0.8,0.9c-0.3,0-0.5-0.1-0.6-0.3l0,0v0.3L180.9,247L180.9,247z M181.2,246.3c0,0.1,0,0.1,0,0.1
			c0.1,0.2,0.3,0.3,0.5,0.3c0.3,0,0.5-0.3,0.5-0.7c0-0.3-0.2-0.7-0.5-0.7c-0.2,0-0.4,0.1-0.5,0.4c0,0.1,0,0.1,0,0.1V246.3z"/>
		<path fill="#FFFFFF" d="M183,245.3l0.4,1c0.1,0.1,0.1,0.3,0.1,0.3l0,0c0-0.1,0.1-0.3,0.1-0.3l0.3-1h0.3l-0.5,1.2
			c-0.2,0.6-0.4,0.9-0.6,1.1c-0.1,0.1-0.3,0.2-0.4,0.2l-0.1-0.3c0.1,0,0.2-0.1,0.3-0.1c0.1-0.1,0.2-0.2,0.3-0.3v-0.1v-0.1l-0.7-1.6
			L183,245.3L183,245.3z"/>
		<path fill="#FFFFFF" d="M186.5,246.9c-0.1,0.1-0.3,0.1-0.5,0.1c-0.5,0-0.9-0.3-0.9-0.9s0.3-0.9,0.9-0.9c0.2,0,0.3,0.1,0.4,0.1
			l-0.1,0.3c-0.1-0.1-0.2-0.1-0.3-0.1c-0.4,0-0.6,0.3-0.6,0.7c0,0.4,0.3,0.7,0.6,0.7c0.2,0,0.3-0.1,0.4-0.1V246.9z"/>
		<path fill="#FFFFFF" d="M187.8,247v-0.2l0,0c-0.1,0.1-0.3,0.3-0.5,0.3c-0.3,0-0.5-0.3-0.5-0.5c0-0.4,0.4-0.7,1-0.7v-0.1
			c0-0.1-0.1-0.4-0.4-0.4c-0.1,0-0.3,0.1-0.5,0.1l-0.1-0.2c0.1-0.1,0.3-0.1,0.5-0.1c0.5,0,0.7,0.3,0.7,0.7v0.7c0,0.1,0,0.3,0,0.4
			L187.8,247L187.8,247z M187.8,246.1c-0.3,0-0.7,0.1-0.7,0.4c0,0.2,0.1,0.3,0.3,0.3c0.2,0,0.3-0.1,0.4-0.3v-0.1L187.8,246.1
			L187.8,246.1z"/>
		<path fill="#FFFFFF" d="M188.6,245.8c0-0.2,0-0.4,0-0.5h0.3v0.3l0,0c0.1-0.2,0.3-0.4,0.5-0.4c0.1,0,0.1,0,0.1,0v0.3
			c0,0-0.1,0-0.1,0c-0.2,0-0.4,0.1-0.4,0.4c0,0.1,0,0.1,0,0.1v0.9h-0.3L188.6,245.8L188.6,245.8z"/>
		<path fill="#FFFFFF" d="M190.1,244.8c0,0.1-0.1,0.2-0.2,0.2s-0.2-0.1-0.2-0.2s0.1-0.2,0.2-0.2C190,244.6,190.1,244.7,190.1,244.8z
			 M189.7,247v-1.7h0.3v1.7H189.7z"/>
		<path fill="#FFFFFF" d="M190.6,245.7c0-0.2,0-0.3,0-0.5h0.3v0.3l0,0c0.1-0.1,0.3-0.3,0.6-0.3c0.3,0,0.6,0.1,0.6,0.7v1h-0.3V246
			c0-0.3-0.1-0.5-0.4-0.5c-0.2,0-0.3,0.1-0.4,0.3c0,0.1,0,0.1,0,0.1v1h-0.3L190.6,245.7L190.6,245.7z"/>
		<path fill="#FFFFFF" d="M194.1,245.3c0,0.1,0,0.3,0,0.5v1c0,0.4-0.1,0.7-0.3,0.8c-0.1,0.1-0.4,0.2-0.6,0.2c-0.2,0-0.4-0.1-0.6-0.1
			l0.1-0.3c0.1,0.1,0.3,0.1,0.5,0.1c0.3,0,0.5-0.2,0.5-0.6v-0.2l0,0c-0.1,0.1-0.3,0.3-0.5,0.3c-0.4,0-0.7-0.3-0.7-0.9
			c0-0.6,0.4-0.9,0.8-0.9c0.3,0,0.5,0.1,0.5,0.3l0,0v-0.3h0.3V245.3z M193.7,245.9c0-0.1,0-0.1,0-0.1c-0.1-0.2-0.2-0.3-0.5-0.3
			c-0.3,0-0.5,0.3-0.5,0.7c0,0.3,0.2,0.6,0.5,0.6c0.2,0,0.3-0.1,0.4-0.3c0-0.1,0-0.1,0-0.1L193.7,245.9L193.7,245.9z"/>
		<path fill="#FFFFFF" d="M195.3,245.8c0-0.2,0-0.4,0-0.5h0.3v0.3l0,0c0.1-0.2,0.3-0.4,0.5-0.4c0.1,0,0.1,0,0.1,0v0.3
			c0,0-0.1,0-0.1,0c-0.2,0-0.4,0.1-0.4,0.4c0,0.1,0,0.1,0,0.1v0.9h-0.3L195.3,245.8L195.3,245.8z"/>
		<path fill="#FFFFFF" d="M196.6,246.2c0,0.4,0.3,0.6,0.6,0.6c0.2,0,0.3-0.1,0.5-0.1l0.1,0.2c-0.1,0.1-0.3,0.1-0.6,0.1
			c-0.5,0-0.9-0.3-0.9-0.9s0.3-0.9,0.8-0.9c0.5,0,0.7,0.5,0.7,0.8c0,0.1,0,0.1,0,0.1L196.6,246.2L196.6,246.2z M197.5,246
			c0-0.2-0.1-0.5-0.4-0.5c-0.3,0-0.5,0.3-0.5,0.5H197.5z"/>
		<path fill="#FFFFFF" d="M198.1,246.7c0.1,0.1,0.3,0.1,0.4,0.1c0.2,0,0.3-0.1,0.3-0.3s-0.1-0.2-0.3-0.3c-0.3-0.1-0.5-0.3-0.5-0.5
			c0-0.3,0.2-0.5,0.6-0.5c0.2,0,0.3,0.1,0.4,0.1l-0.1,0.2c-0.1-0.1-0.2-0.1-0.3-0.1c-0.2,0-0.3,0.1-0.3,0.3c0,0.1,0.1,0.2,0.3,0.3
			c0.3,0.1,0.5,0.3,0.5,0.5c0,0.3-0.3,0.5-0.7,0.5c-0.2,0-0.3-0.1-0.5-0.1L198.1,246.7z"/>
		<path fill="#FFFFFF" d="M199.9,244.8c0,0.1-0.1,0.2-0.2,0.2s-0.2-0.1-0.2-0.2s0.1-0.2,0.2-0.2
			C199.9,244.6,199.9,244.7,199.9,244.8z M199.6,247v-1.7h0.3v1.7H199.6z"/>
		<path fill="#FFFFFF" d="M201.9,244.5v2.1c0,0.1,0,0.3,0,0.5h-0.3v-0.3l0,0c-0.1,0.2-0.3,0.3-0.6,0.3c-0.4,0-0.7-0.3-0.7-0.9
			c0-0.6,0.3-0.9,0.8-0.9c0.3,0,0.5,0.1,0.5,0.3l0,0v-1L201.9,244.5L201.9,244.5z M201.6,246c0-0.1,0-0.1,0-0.1
			c-0.1-0.2-0.2-0.3-0.5-0.3c-0.3,0-0.5,0.3-0.5,0.7c0,0.3,0.2,0.7,0.5,0.7c0.2,0,0.4-0.1,0.5-0.4c0-0.1,0-0.1,0-0.1V246z"/>
		<path fill="#FFFFFF" d="M202.6,246.2c0,0.4,0.3,0.6,0.6,0.6c0.2,0,0.3-0.1,0.5-0.1l0.1,0.2c-0.1,0.1-0.3,0.1-0.6,0.1
			c-0.5,0-0.9-0.3-0.9-0.9s0.3-0.9,0.8-0.9c0.5,0,0.7,0.5,0.7,0.8c0,0.1,0,0.1,0,0.1L202.6,246.2L202.6,246.2z M203.5,246
			c0-0.2-0.1-0.5-0.4-0.5c-0.3,0-0.5,0.3-0.5,0.5H203.5z"/>
		<path fill="#FFFFFF" d="M204.2,245.7c0-0.2,0-0.3,0-0.5h0.3v0.3l0,0c0.1-0.1,0.3-0.3,0.6-0.3c0.3,0,0.6,0.1,0.6,0.7v1h-0.3V246
			c0-0.3-0.1-0.5-0.4-0.5c-0.2,0-0.3,0.1-0.4,0.3c0,0.1,0,0.1,0,0.1v1h-0.3V245.7z"/>
		<path fill="#FFFFFF" d="M206.5,244.8v0.5h0.5v0.3h-0.5v0.9c0,0.2,0.1,0.3,0.3,0.3c0.1,0,0.1,0,0.2,0v0.3c-0.1,0-0.1,0.1-0.3,0.1
			c-0.1,0-0.3-0.1-0.3-0.1c-0.1-0.1-0.1-0.3-0.1-0.5v-0.9H206v-0.3h0.3v-0.4L206.5,244.8z"/>
		<path fill="#FFFFFF" d="M207.3,246.7c0.1,0.1,0.3,0.1,0.4,0.1c0.2,0,0.3-0.1,0.3-0.3s-0.1-0.2-0.3-0.3c-0.3-0.1-0.5-0.3-0.5-0.5
			c0-0.3,0.2-0.5,0.6-0.5c0.2,0,0.3,0.1,0.4,0.1l-0.1,0.2c-0.1-0.1-0.2-0.1-0.3-0.1c-0.2,0-0.3,0.1-0.3,0.3c0,0.1,0.1,0.2,0.3,0.3
			c0.3,0.1,0.5,0.3,0.5,0.5c0,0.3-0.3,0.5-0.7,0.5c-0.2,0-0.3-0.1-0.5-0.1L207.3,246.7z"/>
		<path fill="#FFFFFF" d="M208.6,246.8c0-0.1,0.1-0.2,0.2-0.2c0.1,0,0.2,0.1,0.2,0.2c0,0.1-0.1,0.2-0.2,0.2
			C208.7,247.1,208.6,246.9,208.6,246.8z"/>
	</g>
	<circle fill="#FFA09E" stroke="#FFA09E" stroke-width="5.3218" stroke-miterlimit="10" cx="154.9" cy="183.5" r="11.7"/>
	<rect x="177.1" y="175" fill="none" width="24.2" height="18.3"/>
	<g enable-background="new    ">
		<path fill="#205D76" d="M178.3,179.3h-0.7v-4.1h2.3v0.6h-1.6v1.3h1.5v0.6h-1.5V179.3z"/>
		<path fill="#205D76" d="M183.4,177.8c0,0.5-0.1,0.9-0.4,1.2c-0.3,0.3-0.6,0.4-1.1,0.4c-0.3,0-0.5-0.1-0.8-0.2
			c-0.2-0.1-0.4-0.3-0.5-0.6c-0.1-0.2-0.2-0.5-0.2-0.9c0-0.5,0.1-0.9,0.4-1.2c0.3-0.3,0.6-0.4,1.1-0.4c0.4,0,0.8,0.1,1.1,0.4
			C183.3,176.9,183.4,177.3,183.4,177.8z M181.2,177.8c0,0.7,0.3,1.1,0.8,1.1c0.5,0,0.8-0.4,0.8-1.1c0-0.7-0.3-1.1-0.8-1.1
			c-0.3,0-0.5,0.1-0.6,0.3S181.2,177.4,181.2,177.8z"/>
		<path fill="#205D76" d="M186.9,177.8c0,0.5-0.1,0.9-0.4,1.2c-0.3,0.3-0.6,0.4-1.1,0.4c-0.3,0-0.5-0.1-0.8-0.2
			c-0.2-0.1-0.4-0.3-0.5-0.6c-0.1-0.2-0.2-0.5-0.2-0.9c0-0.5,0.1-0.9,0.4-1.2c0.3-0.3,0.6-0.4,1.1-0.4c0.4,0,0.8,0.1,1.1,0.4
			C186.8,176.9,186.9,177.3,186.9,177.8z M184.7,177.8c0,0.7,0.3,1.1,0.8,1.1c0.5,0,0.8-0.4,0.8-1.1c0-0.7-0.3-1.1-0.8-1.1
			c-0.3,0-0.5,0.1-0.6,0.3S184.7,177.4,184.7,177.8z"/>
		<path fill="#205D76" d="M188.7,179.4c-0.4,0-0.7-0.1-0.9-0.4c-0.2-0.3-0.3-0.7-0.3-1.2c0-0.5,0.1-0.9,0.3-1.2
			c0.2-0.3,0.5-0.4,0.9-0.4c0.4,0,0.7,0.2,0.9,0.5h0c0-0.2,0-0.4,0-0.5V175h0.7v4.4h-0.5l-0.1-0.4h0
			C189.4,179.2,189.1,179.4,188.7,179.4z M188.9,178.9c0.3,0,0.5-0.1,0.6-0.2c0.1-0.2,0.2-0.4,0.2-0.7v-0.1c0-0.4-0.1-0.7-0.2-0.8
			s-0.3-0.2-0.6-0.2c-0.2,0-0.4,0.1-0.5,0.3s-0.2,0.5-0.2,0.8c0,0.3,0.1,0.6,0.2,0.8C188.5,178.8,188.6,178.9,188.9,178.9z"/>
	</g>
	<circle fill="#A2A242" stroke="#A2A242" stroke-width="5.3218" stroke-miterlimit="10" cx="155.1" cy="217.5" r="11.7"/>
	<g>
		<rect x="177.4" y="208.3" fill="none" width="26.9" height="8.1"/>
		<g enable-background="new    ">
			<path fill="#205D76" d="M180.3,211.6c0,0.4-0.1,0.6-0.4,0.9s-0.6,0.3-1.1,0.3s-0.8-0.1-1.1-0.2v-0.6c0.2,0.1,0.4,0.2,0.6,0.2
				c0.2,0,0.4,0.1,0.6,0.1c0.3,0,0.5,0,0.6-0.2c0.1-0.1,0.2-0.2,0.2-0.4c0-0.2-0.1-0.3-0.2-0.4c-0.1-0.1-0.4-0.2-0.7-0.4
				c-0.4-0.2-0.6-0.3-0.8-0.5c-0.2-0.2-0.2-0.4-0.2-0.7c0-0.3,0.1-0.6,0.4-0.8c0.2-0.2,0.6-0.3,1-0.3c0.4,0,0.8,0.1,1.2,0.3
				l-0.2,0.5c-0.4-0.2-0.7-0.2-1-0.2c-0.2,0-0.4,0-0.5,0.1c-0.1,0.1-0.2,0.2-0.2,0.4c0,0.1,0,0.2,0.1,0.3c0,0.1,0.1,0.1,0.2,0.2
				c0.1,0.1,0.3,0.2,0.6,0.3c0.3,0.1,0.5,0.2,0.7,0.4c0.1,0.1,0.2,0.2,0.3,0.4C180.2,211.2,180.3,211.4,180.3,211.6z"/>
			<path fill="#205D76" d="M183.7,212.7h-0.7v-1.9c0-0.2,0-0.4-0.1-0.5c-0.1-0.1-0.2-0.2-0.5-0.2c-0.3,0-0.5,0.1-0.6,0.2
				c-0.1,0.2-0.2,0.4-0.2,0.8v1.5H181v-4.4h0.7v1.1c0,0.2,0,0.4,0,0.6h0c0.1-0.1,0.2-0.3,0.4-0.3c0.2-0.1,0.3-0.1,0.6-0.1
				c0.8,0,1.1,0.4,1.1,1.1V212.7z"/>
			<path fill="#205D76" d="M187.4,211.1c0,0.5-0.1,0.9-0.4,1.2c-0.3,0.3-0.6,0.4-1.1,0.4c-0.3,0-0.5-0.1-0.8-0.2
				c-0.2-0.1-0.4-0.3-0.5-0.6c-0.1-0.2-0.2-0.5-0.2-0.9c0-0.5,0.1-0.9,0.4-1.2c0.3-0.3,0.6-0.4,1.1-0.4c0.4,0,0.8,0.1,1.1,0.4
				C187.3,210.2,187.4,210.6,187.4,211.1z M185.1,211.1c0,0.7,0.3,1.1,0.8,1.1c0.5,0,0.8-0.4,0.8-1.1c0-0.7-0.3-1.1-0.8-1.1
				c-0.3,0-0.5,0.1-0.6,0.3S185.1,210.8,185.1,211.1z"/>
			<path fill="#205D76" d="M189.7,212.7c-0.4,0-0.7-0.1-0.9-0.4h0c0,0.3,0,0.4,0,0.5v1.3h-0.7v-4.5h0.5c0,0.1,0,0.2,0.1,0.4h0
				c0.2-0.3,0.5-0.5,0.9-0.5c0.4,0,0.7,0.1,0.9,0.4c0.2,0.3,0.3,0.7,0.3,1.2s-0.1,0.9-0.3,1.2C190.4,212.6,190.1,212.7,189.7,212.7z
				 M189.6,210.1c-0.3,0-0.5,0.1-0.6,0.2s-0.2,0.4-0.2,0.7v0.1c0,0.4,0.1,0.6,0.2,0.8s0.3,0.3,0.6,0.3c0.2,0,0.4-0.1,0.5-0.3
				c0.1-0.2,0.2-0.5,0.2-0.8c0-0.3-0.1-0.6-0.2-0.8C190,210.1,189.8,210.1,189.6,210.1z"/>
		</g>
	</g>
	<g>
		<path fill="#A2A242" stroke="#A2A242" stroke-width="2.1272" stroke-miterlimit="10" d="M153.1,146.5c0-0.5-0.5-1-1.1-1
			c-0.6,0-1.1,0.5-1.1,1H153.1z"/>
	</g>
	<g>
		<path fill="#A2A242" d="M161.1,177.9v15.5h-12.3v-15.4c0,0,1.3-0.5,1.5-0.5c0.5-0.3,1-0.5,1.5-0.9c0.9-0.7,1.1-1.4,1.1-2.3
			c0-0.9,0.9-1.5,2.1-1.5c0.6,0,1.1,0.2,1.5,0.5c0.4,0.3,0.6,0.7,0.6,1.1c0,0.9,0.3,1.6,1.1,2.3C158.9,177.2,160,177.7,161.1,177.9z
			"/>
		<g>
			<circle fill="#62D4D4" cx="154.9" cy="177.1" r="1.2"/>
			<g>
				
					<line fill="none" stroke="#205D76" stroke-width="0.1588" stroke-linecap="round" stroke-linejoin="round" stroke-miterlimit="10" x1="154.9" y1="177.3" x2="154.9" y2="176.5"/>
				
					<line fill="none" stroke="#205D76" stroke-width="0.1588" stroke-linecap="round" stroke-linejoin="round" stroke-miterlimit="10" x1="154.9" y1="177.3" x2="155.6" y2="177.3"/>
			</g>
		</g>
		<g>
			<path fill="#FFFFFF" d="M152.2,180c0.7,0,1.3,0.5,1.3,1.1v1.9h-2.7v-1.9C150.9,180.5,151.5,180,152.2,180L152.2,180"/>
			<rect x="150.9" y="183" fill="#FFAAA8" width="2.7" height="0.3"/>
		</g>
		<g>
			<path fill="#FFFFFF" d="M157.7,180.1c0.7,0,1.3,0.5,1.3,1.1v1.9h-2.7v-1.9C156.3,180.5,156.9,180.1,157.7,180.1L157.7,180.1"/>
			<rect x="156.3" y="183.1" fill="#FFAAA8" width="2.7" height="0.3"/>
		</g>
		<g>
			<path fill="#FFFFFF" d="M154.9,184.6c1.6,0,2.9,0.5,2.9,1.1v1.9h-5.9l0.1-1.9C152,185.1,153.3,184.6,154.9,184.6L154.9,184.6"/>
			<rect x="151.9" y="187.6" fill="#FFAAA8" width="5.9" height="0.3"/>
		</g>
		<g>
			<path fill="#FFAAA8" stroke="#FFAAA8" stroke-width="9.298383e-02" stroke-miterlimit="10" d="M154.9,189c1.5,0,2.7,0.3,2.7,0.7
				l-2.4,1.1l-1.9-0.3l-1.1-0.8C152.1,189.4,153.4,189,154.9,189L154.9,189"/>
			<rect x="152.1" y="189.7" fill="#FFD265" width="5.5" height="3.6"/>
			<line fill="none" stroke="#A2A242" stroke-width="0.6536" stroke-miterlimit="10" x1="154.9" y1="189.7" x2="154.9" y2="193.3"/>
		</g>
	</g>
	<g>
		<g>
			<rect x="146.9" y="217.9" fill="#FFA09E" width="15.9" height="8.6"/>
			<rect x="147.7" y="212.6" fill="#FFA09E" width="14.2" height="5.4"/>
			<rect x="149.6" y="208.7" fill="#FFA09E" width="10.4" height="4"/>
			<polygon fill="#205D76" points="154.8,207 157.4,207.9 160,208.7 154.8,208.7 149.6,208.7 152.2,207.9 			"/>
			<rect x="153.2" y="222.5" fill="#205D76" width="3.3" height="3.9"/>
			<rect x="147.7" y="212.6" fill="#205D76" width="14.2" height="0.6"/>
			<rect x="146.9" y="217.9" fill="#205D76" width="15.9" height="0.5"/>
			<path fill="#FFFFFF" d="M157.9,211.7c0-1.2-1.3-2.1-3-2.1c-1.7,0-3,0.9-3,2.1H157.9z"/>
			<rect x="151.9" y="211.7" fill="#205D76" width="6.1" height="0.2"/>
			<path fill="#FFFFFF" d="M156.5,222.5c0-0.5-0.7-0.8-1.6-0.8c-0.9,0-1.6,0.4-1.6,0.8H156.5z"/>
			<rect x="149.6" y="214" fill="#FFD265" width="4.1" height="2.6"/>
			<rect x="156" y="214" fill="#FFD265" width="4.1" height="2.6"/>
			<g>
				<rect x="146.9" y="218.4" fill="#FFFFFF" width="15.9" height="0.3"/>
				<ellipse fill="#FFFFFF" cx="148.2" cy="218.7" rx="1.3" ry="0.3"/>
				<ellipse fill="#FFFFFF" cx="150.3" cy="218.7" rx="1.3" ry="0.3"/>
				<ellipse fill="#FFFFFF" cx="152.5" cy="218.7" rx="1.3" ry="0.3"/>
				<ellipse fill="#FFFFFF" cx="154.8" cy="218.7" rx="1.3" ry="0.3"/>
				<ellipse fill="#FFFFFF" cx="157.1" cy="218.7" rx="1.3" ry="0.3"/>
				<ellipse fill="#FFFFFF" cx="159.3" cy="218.8" rx="1.3" ry="0.3"/>
				<ellipse fill="#FFFFFF" cx="161.6" cy="218.8" rx="1.3" ry="0.3"/>
			</g>
		</g>
		<ellipse fill="#FFFFFF" cx="150.1" cy="223" rx="1.4" ry="1.5"/>
		<ellipse fill="#FFFFFF" cx="160" cy="223" rx="1.4" ry="1.5"/>
	</g>
	<circle fill="#FFC122" cx="178.7" cy="185.3" r="1.1"/>
	<rect x="173.7" y="183.8" fill="none" width="35.7" height="7.8"/>
	<g enable-background="new    ">
		<path fill="#EA6E2F" d="M181.6,187.2c-0.1,0-0.2,0-0.3,0v-0.3c0.1,0,0.2,0,0.3,0c0.1,0,0.2,0,0.3-0.1c0.1-0.1,0.1-0.2,0.1-0.3V184
			h0.3v2.5c0,0.2-0.1,0.4-0.2,0.5C181.9,187.1,181.8,187.2,181.6,187.2z"/>
		<path fill="#EA6E2F" d="M183.1,184.6v1.2c0,0.2,0,0.3,0.1,0.3c0.1,0.1,0.2,0.1,0.3,0.1c0.2,0,0.3-0.1,0.4-0.2s0.1-0.3,0.1-0.5v-1
			h0.3v1.9h-0.2l0-0.3h0c-0.1,0.1-0.1,0.2-0.2,0.2s-0.2,0.1-0.4,0.1c-0.2,0-0.4-0.1-0.5-0.2c-0.1-0.1-0.2-0.3-0.2-0.5v-1.2H183.1z"
			/>
		<path fill="#EA6E2F" d="M186.2,186c0,0.2-0.1,0.3-0.2,0.4c-0.1,0.1-0.3,0.1-0.6,0.1c-0.3,0-0.4,0-0.6-0.1v-0.3
			c0.1,0,0.2,0.1,0.3,0.1c0.1,0,0.2,0,0.3,0c0.2,0,0.3,0,0.3-0.1c0.1,0,0.1-0.1,0.1-0.2c0-0.1,0-0.1-0.1-0.2s-0.2-0.1-0.4-0.2
			c-0.2-0.1-0.3-0.1-0.4-0.2c-0.1,0-0.1-0.1-0.2-0.2c0-0.1-0.1-0.1-0.1-0.2c0-0.2,0.1-0.3,0.2-0.4c0.1-0.1,0.3-0.1,0.5-0.1
			c0.2,0,0.4,0,0.6,0.1l-0.1,0.2c-0.2-0.1-0.4-0.1-0.5-0.1c-0.1,0-0.2,0-0.3,0.1c-0.1,0-0.1,0.1-0.1,0.2c0,0.1,0,0.1,0,0.1
			c0,0,0.1,0.1,0.1,0.1c0.1,0,0.2,0.1,0.3,0.1c0.2,0.1,0.4,0.2,0.5,0.2C186.2,185.8,186.2,185.9,186.2,186z"/>
		<path fill="#EA6E2F" d="M187.3,186.3c0.1,0,0.1,0,0.1,0s0.1,0,0.1,0v0.2c0,0-0.1,0-0.1,0c-0.1,0-0.1,0-0.2,0
			c-0.4,0-0.6-0.2-0.6-0.6v-1.1h-0.3v-0.1l0.3-0.1l0.1-0.4h0.2v0.4h0.6v0.2H187v1.1c0,0.1,0,0.2,0.1,0.3
			C187.1,186.3,187.2,186.3,187.3,186.3z"/>
		<path fill="#EA6E2F" d="M190,184.2c-0.3,0-0.5,0.1-0.7,0.3c-0.2,0.2-0.2,0.4-0.2,0.8c0,0.3,0.1,0.6,0.2,0.8s0.4,0.3,0.7,0.3
			c0.2,0,0.4,0,0.6-0.1v0.3c-0.2,0.1-0.4,0.1-0.6,0.1c-0.4,0-0.7-0.1-0.9-0.3s-0.3-0.5-0.3-1c0-0.3,0-0.5,0.1-0.7s0.2-0.3,0.4-0.5
			c0.2-0.1,0.4-0.2,0.7-0.2c0.3,0,0.5,0,0.7,0.1l-0.1,0.3C190.4,184.3,190.2,184.2,190,184.2z"/>
		<path fill="#EA6E2F" d="M192.8,185.6c0,0.3-0.1,0.6-0.2,0.7c-0.2,0.2-0.4,0.3-0.6,0.3c-0.2,0-0.3,0-0.5-0.1
			c-0.1-0.1-0.2-0.2-0.3-0.3c-0.1-0.1-0.1-0.3-0.1-0.5c0-0.3,0.1-0.6,0.2-0.7c0.2-0.2,0.4-0.3,0.6-0.3c0.3,0,0.5,0.1,0.6,0.3
			C192.7,185,192.8,185.3,192.8,185.6z M191.3,185.6c0,0.2,0,0.4,0.1,0.6c0.1,0.1,0.2,0.2,0.4,0.2c0.2,0,0.3-0.1,0.4-0.2
			c0.1-0.1,0.1-0.3,0.1-0.6c0-0.2,0-0.4-0.1-0.5s-0.2-0.2-0.4-0.2c-0.2,0-0.3,0.1-0.4,0.2C191.4,185.1,191.3,185.3,191.3,185.6z"/>
		<path fill="#EA6E2F" d="M194.9,185.6c0,0.3-0.1,0.6-0.2,0.7c-0.2,0.2-0.4,0.3-0.6,0.3c-0.2,0-0.3,0-0.5-0.1
			c-0.1-0.1-0.2-0.2-0.3-0.3c-0.1-0.1-0.1-0.3-0.1-0.5c0-0.3,0.1-0.6,0.2-0.7c0.2-0.2,0.4-0.3,0.6-0.3c0.3,0,0.5,0.1,0.6,0.3
			C194.8,185,194.9,185.3,194.9,185.6z M193.5,185.6c0,0.2,0,0.4,0.1,0.6c0.1,0.1,0.2,0.2,0.4,0.2c0.2,0,0.3-0.1,0.4-0.2
			c0.1-0.1,0.1-0.3,0.1-0.6c0-0.2,0-0.4-0.1-0.5s-0.2-0.2-0.4-0.2c-0.2,0-0.3,0.1-0.4,0.2C193.5,185.1,193.5,185.3,193.5,185.6z"/>
		<path fill="#EA6E2F" d="M195.7,185.5c0-0.1,0.1-0.2,0.2-0.3l0.6-0.6h0.3l-0.8,0.8l0.8,1.1h-0.3l-0.7-0.9l-0.2,0.2v0.7h-0.3v-2.7
			h0.3v1.4C195.7,185.3,195.7,185.4,195.7,185.5L195.7,185.5z"/>
		<path fill="#EA6E2F" d="M197.2,184.1c0-0.1,0-0.1,0-0.1c0,0,0.1,0,0.1,0c0,0,0.1,0,0.1,0c0,0,0.1,0.1,0.1,0.1s0,0.1-0.1,0.1
			c0,0-0.1,0-0.1,0c0,0-0.1,0-0.1,0C197.3,184.2,197.2,184.2,197.2,184.1z M197.6,186.5h-0.3v-1.9h0.3V186.5z"/>
		<path fill="#EA6E2F" d="M199,186.5c-0.3,0-0.5-0.1-0.7-0.3c-0.2-0.2-0.2-0.4-0.2-0.7c0-0.3,0.1-0.5,0.2-0.7
			c0.2-0.2,0.4-0.3,0.6-0.3c0.2,0,0.4,0.1,0.6,0.2c0.1,0.2,0.2,0.4,0.2,0.6v0.2h-1.3c0,0.2,0.1,0.4,0.2,0.5s0.3,0.2,0.5,0.2
			c0.2,0,0.4,0,0.6-0.1v0.3c-0.1,0-0.2,0.1-0.3,0.1C199.2,186.5,199.1,186.5,199,186.5z M198.9,184.8c-0.2,0-0.3,0-0.4,0.1
			c-0.1,0.1-0.1,0.2-0.2,0.4h1c0-0.2,0-0.3-0.1-0.4S199,184.8,198.9,184.8z"/>
		<path fill="#EA6E2F" d="M201.4,186c0,0.2-0.1,0.3-0.2,0.4s-0.3,0.1-0.6,0.1c-0.3,0-0.4,0-0.6-0.1v-0.3c0.1,0,0.2,0.1,0.3,0.1
			c0.1,0,0.2,0,0.3,0c0.2,0,0.3,0,0.3-0.1c0.1,0,0.1-0.1,0.1-0.2c0-0.1,0-0.1-0.1-0.2s-0.2-0.1-0.4-0.2c-0.2-0.1-0.3-0.1-0.4-0.2
			s-0.1-0.1-0.2-0.2c0-0.1-0.1-0.1-0.1-0.2c0-0.2,0.1-0.3,0.2-0.4c0.1-0.1,0.3-0.1,0.5-0.1c0.2,0,0.4,0,0.6,0.1l-0.1,0.2
			c-0.2-0.1-0.4-0.1-0.5-0.1c-0.1,0-0.2,0-0.3,0.1c-0.1,0-0.1,0.1-0.1,0.2c0,0.1,0,0.1,0,0.1c0,0,0.1,0.1,0.1,0.1s0.2,0.1,0.3,0.1
			c0.2,0.1,0.4,0.2,0.5,0.2C201.3,185.8,201.4,185.9,201.4,186z"/>
	</g>
	<circle fill="#FFC122" cx="178.7" cy="191.2" r="1.1"/>
	<rect x="170.9" y="189.8" fill="none" width="35.7" height="7.8"/>
	<g enable-background="new    ">
		<path fill="#EA6E2F" d="M182.6,190.2c-0.3,0-0.5,0.1-0.7,0.3c-0.2,0.2-0.2,0.4-0.2,0.8c0,0.3,0.1,0.6,0.2,0.8s0.4,0.3,0.7,0.3
			c0.2,0,0.4,0,0.6-0.1v0.3c-0.2,0.1-0.4,0.1-0.6,0.1c-0.4,0-0.7-0.1-0.9-0.3s-0.3-0.5-0.3-1c0-0.3,0-0.5,0.1-0.7s0.2-0.3,0.4-0.5
			c0.2-0.1,0.4-0.2,0.7-0.2c0.3,0,0.5,0,0.7,0.1l-0.1,0.3C182.9,190.2,182.8,190.2,182.6,190.2z"/>
		<path fill="#EA6E2F" d="M184.8,192.5l-0.1-0.3h0c-0.1,0.1-0.2,0.2-0.3,0.2s-0.2,0.1-0.4,0.1c-0.2,0-0.3,0-0.4-0.1
			c-0.1-0.1-0.2-0.2-0.2-0.4c0-0.4,0.3-0.6,0.9-0.6l0.3,0v-0.1c0-0.1,0-0.3-0.1-0.3c-0.1-0.1-0.2-0.1-0.3-0.1c-0.2,0-0.3,0-0.5,0.1
			l-0.1-0.2c0.1-0.1,0.2-0.1,0.3-0.1c0.1,0,0.2,0,0.3,0c0.2,0,0.4,0,0.5,0.2c0.1,0.1,0.2,0.3,0.2,0.5v1.3H184.8z M184.2,192.3
			c0.2,0,0.3,0,0.4-0.1c0.1-0.1,0.2-0.2,0.2-0.4v-0.2l-0.3,0c-0.2,0-0.4,0-0.5,0.1c-0.1,0.1-0.2,0.2-0.2,0.3c0,0.1,0,0.2,0.1,0.2
			C184,192.3,184.1,192.3,184.2,192.3z"/>
		<path fill="#EA6E2F" d="M185.9,191.5c0-0.1,0.1-0.2,0.2-0.3l0.6-0.6h0.3l-0.8,0.8l0.8,1.1h-0.3l-0.7-0.9l-0.2,0.2v0.7h-0.3v-2.7
			h0.3v1.4C185.9,191.3,185.9,191.4,185.9,191.5L185.9,191.5z"/>
		<path fill="#EA6E2F" d="M188.3,192.5c-0.3,0-0.5-0.1-0.7-0.3c-0.2-0.2-0.2-0.4-0.2-0.7c0-0.3,0.1-0.5,0.2-0.7
			c0.2-0.2,0.4-0.3,0.6-0.3c0.2,0,0.4,0.1,0.6,0.2c0.1,0.2,0.2,0.4,0.2,0.6v0.2h-1.3c0,0.2,0.1,0.4,0.2,0.5s0.3,0.2,0.5,0.2
			c0.2,0,0.4,0,0.6-0.1v0.3c-0.1,0-0.2,0.1-0.3,0.1C188.6,192.5,188.4,192.5,188.3,192.5z M188.2,190.8c-0.2,0-0.3,0-0.4,0.1
			c-0.1,0.1-0.1,0.2-0.2,0.4h1c0-0.2,0-0.3-0.1-0.4S188.4,190.8,188.2,190.8z"/>
		<path fill="#EA6E2F" d="M191.2,192.5H191v-2.3h-0.8V190h1.9v0.3h-0.8V192.5z"/>
		<path fill="#EA6E2F" d="M194,191.5c0,0.3-0.1,0.6-0.2,0.7c-0.2,0.2-0.4,0.3-0.6,0.3c-0.2,0-0.3,0-0.5-0.1
			c-0.1-0.1-0.2-0.2-0.3-0.3c-0.1-0.1-0.1-0.3-0.1-0.5c0-0.3,0.1-0.6,0.2-0.7c0.2-0.2,0.4-0.3,0.6-0.3c0.3,0,0.5,0.1,0.6,0.3
			C193.9,191,194,191.2,194,191.5z M192.6,191.5c0,0.2,0,0.4,0.1,0.6c0.1,0.1,0.2,0.2,0.4,0.2c0.2,0,0.3-0.1,0.4-0.2
			c0.1-0.1,0.1-0.3,0.1-0.6c0-0.2,0-0.4-0.1-0.5s-0.2-0.2-0.4-0.2c-0.2,0-0.3,0.1-0.4,0.2C192.6,191.1,192.6,191.3,192.6,191.5z"/>
		<path fill="#EA6E2F" d="M196.2,191.5c0,0.3-0.1,0.6-0.2,0.7c-0.2,0.2-0.4,0.3-0.6,0.3c-0.2,0-0.3,0-0.5-0.1
			c-0.1-0.1-0.2-0.2-0.3-0.3c-0.1-0.1-0.1-0.3-0.1-0.5c0-0.3,0.1-0.6,0.2-0.7c0.2-0.2,0.4-0.3,0.6-0.3c0.3,0,0.5,0.1,0.6,0.3
			C196.1,191,196.2,191.2,196.2,191.5z M194.7,191.5c0,0.2,0,0.4,0.1,0.6c0.1,0.1,0.2,0.2,0.4,0.2c0.2,0,0.3-0.1,0.4-0.2
			c0.1-0.1,0.1-0.3,0.1-0.6c0-0.2,0-0.4-0.1-0.5s-0.2-0.2-0.4-0.2c-0.2,0-0.3,0.1-0.4,0.2C194.8,191.1,194.7,191.3,194.7,191.5z"/>
	</g>
	<circle fill="#FFC122" cx="178.6" cy="219.1" r="1.1"/>
	<rect x="174.7" y="217.6" fill="none" width="35.7" height="7.8"/>
	<g enable-background="new    ">
		<path fill="#EA6E2F" d="M183,218.5c0,0.3-0.1,0.5-0.3,0.6c-0.2,0.1-0.4,0.2-0.8,0.2h-0.3v1h-0.3v-2.5h0.7
			C182.7,217.8,183,218,183,218.5z M181.7,219.1h0.3c0.3,0,0.4,0,0.6-0.1c0.1-0.1,0.2-0.2,0.2-0.4c0-0.2-0.1-0.3-0.2-0.4
			c-0.1-0.1-0.3-0.1-0.5-0.1h-0.3V219.1z"/>
		<path fill="#EA6E2F" d="M183.7,218.4v1.2c0,0.2,0,0.3,0.1,0.3c0.1,0.1,0.2,0.1,0.3,0.1c0.2,0,0.3-0.1,0.4-0.2s0.1-0.3,0.1-0.5v-1
			h0.3v1.9h-0.2l0-0.3h0c-0.1,0.1-0.1,0.2-0.2,0.2s-0.2,0.1-0.4,0.1c-0.2,0-0.4-0.1-0.5-0.2c-0.1-0.1-0.2-0.3-0.2-0.5v-1.2H183.7z"
			/>
		<path fill="#EA6E2F" d="M186.5,220.4c-0.1,0-0.2,0-0.3-0.1c-0.1,0-0.2-0.1-0.3-0.2h0c0,0.1,0,0.2,0,0.3v0.8h-0.3v-2.8h0.2l0,0.3h0
			c0.1-0.1,0.2-0.2,0.3-0.2c0.1,0,0.2-0.1,0.3-0.1c0.3,0,0.4,0.1,0.6,0.3c0.1,0.2,0.2,0.4,0.2,0.7c0,0.3-0.1,0.6-0.2,0.7
			S186.8,220.4,186.5,220.4z M186.5,218.6c-0.2,0-0.3,0.1-0.4,0.2c-0.1,0.1-0.1,0.3-0.1,0.5v0.1c0,0.3,0,0.5,0.1,0.6
			c0.1,0.1,0.2,0.2,0.4,0.2c0.2,0,0.3-0.1,0.4-0.2c0.1-0.1,0.1-0.3,0.1-0.5c0-0.2,0-0.4-0.1-0.5
			C186.8,218.7,186.6,218.6,186.5,218.6z"/>
		<path fill="#EA6E2F" d="M188.7,220.4c-0.1,0-0.2,0-0.3-0.1c-0.1,0-0.2-0.1-0.3-0.2h0c0,0.1,0,0.2,0,0.3v0.8h-0.3v-2.8h0.2l0,0.3h0
			c0.1-0.1,0.2-0.2,0.3-0.2c0.1,0,0.2-0.1,0.3-0.1c0.3,0,0.4,0.1,0.6,0.3c0.1,0.2,0.2,0.4,0.2,0.7c0,0.3-0.1,0.6-0.2,0.7
			S188.9,220.4,188.7,220.4z M188.7,218.6c-0.2,0-0.3,0.1-0.4,0.2c-0.1,0.1-0.1,0.3-0.1,0.5v0.1c0,0.3,0,0.5,0.1,0.6
			c0.1,0.1,0.2,0.2,0.4,0.2c0.2,0,0.3-0.1,0.4-0.2c0.1-0.1,0.1-0.3,0.1-0.5c0-0.2,0-0.4-0.1-0.5C189,218.7,188.8,218.6,188.7,218.6z
			"/>
		<path fill="#EA6E2F" d="M189.7,218.4h0.3l0.4,1.1c0.1,0.2,0.1,0.4,0.2,0.5h0c0-0.1,0-0.2,0.1-0.3c0-0.1,0.2-0.6,0.5-1.3h0.3
			l-0.8,2.2c-0.1,0.2-0.2,0.4-0.3,0.5c-0.1,0.1-0.2,0.1-0.4,0.1c-0.1,0-0.2,0-0.3,0v-0.2c0.1,0,0.1,0,0.2,0c0.2,0,0.3-0.1,0.4-0.3
			l0.1-0.3L189.7,218.4z"/>
		<path fill="#EA6E2F" d="M194.3,218.5c0,0.3-0.1,0.5-0.3,0.6c-0.2,0.1-0.4,0.2-0.8,0.2H193v1h-0.3v-2.5h0.7
			C194,217.8,194.3,218,194.3,218.5z M193,219.1h0.3c0.3,0,0.4,0,0.6-0.1c0.1-0.1,0.2-0.2,0.2-0.4c0-0.2-0.1-0.3-0.2-0.4
			c-0.1-0.1-0.3-0.1-0.5-0.1H193V219.1z"/>
		<path fill="#EA6E2F" d="M196,220.3l-0.1-0.3h0c-0.1,0.1-0.2,0.2-0.3,0.2s-0.2,0.1-0.4,0.1c-0.2,0-0.3,0-0.4-0.1
			c-0.1-0.1-0.2-0.2-0.2-0.4c0-0.4,0.3-0.6,0.9-0.6l0.3,0v-0.1c0-0.1,0-0.3-0.1-0.3c-0.1-0.1-0.2-0.1-0.3-0.1c-0.2,0-0.3,0-0.5,0.1
			l-0.1-0.2c0.1-0.1,0.2-0.1,0.3-0.1c0.1,0,0.2,0,0.3,0c0.2,0,0.4,0,0.5,0.2c0.1,0.1,0.2,0.3,0.2,0.5v1.3H196z M195.3,220.1
			c0.2,0,0.3,0,0.4-0.1c0.1-0.1,0.2-0.2,0.2-0.4v-0.2l-0.3,0c-0.2,0-0.4,0-0.5,0.1c-0.1,0.1-0.2,0.2-0.2,0.3c0,0.1,0,0.2,0.1,0.2
			C195.1,220.1,195.2,220.1,195.3,220.1z"/>
		<path fill="#EA6E2F" d="M197.7,218.4c0.1,0,0.2,0,0.2,0l0,0.3c-0.1,0-0.1,0-0.2,0c-0.2,0-0.3,0.1-0.4,0.2
			c-0.1,0.1-0.2,0.3-0.2,0.5v1h-0.3v-1.9h0.2l0,0.4h0c0.1-0.1,0.2-0.2,0.3-0.3C197.4,218.4,197.6,218.4,197.7,218.4z"/>
		<path fill="#EA6E2F" d="M199.4,220.3l-0.1-0.3h0c-0.1,0.1-0.2,0.2-0.3,0.2s-0.2,0.1-0.4,0.1c-0.2,0-0.3,0-0.4-0.1
			c-0.1-0.1-0.2-0.2-0.2-0.4c0-0.4,0.3-0.6,0.9-0.6l0.3,0v-0.1c0-0.1,0-0.3-0.1-0.3c-0.1-0.1-0.2-0.1-0.3-0.1c-0.2,0-0.3,0-0.5,0.1
			l-0.1-0.2c0.1-0.1,0.2-0.1,0.3-0.1c0.1,0,0.2,0,0.3,0c0.2,0,0.4,0,0.5,0.2c0.1,0.1,0.2,0.3,0.2,0.5v1.3H199.4z M198.8,220.1
			c0.2,0,0.3,0,0.4-0.1c0.1-0.1,0.2-0.2,0.2-0.4v-0.2l-0.3,0c-0.2,0-0.4,0-0.5,0.1c-0.1,0.1-0.2,0.2-0.2,0.3c0,0.1,0,0.2,0.1,0.2
			C198.6,220.1,198.7,220.1,198.8,220.1z"/>
		<path fill="#EA6E2F" d="M201.5,220.1L201.5,220.1c-0.1,0.2-0.3,0.3-0.6,0.3c-0.2,0-0.4-0.1-0.6-0.3c-0.1-0.2-0.2-0.4-0.2-0.7
			c0-0.3,0.1-0.6,0.2-0.7c0.1-0.2,0.3-0.3,0.6-0.3c0.3,0,0.5,0.1,0.6,0.3h0l0-0.1l0-0.1v-0.8h0.3v2.7h-0.2L201.5,220.1z
			 M200.9,220.1c0.2,0,0.3-0.1,0.4-0.2c0.1-0.1,0.1-0.3,0.1-0.5v-0.1c0-0.3,0-0.5-0.1-0.6c-0.1-0.1-0.2-0.2-0.4-0.2
			c-0.2,0-0.3,0.1-0.4,0.2s-0.1,0.3-0.1,0.6c0,0.2,0,0.4,0.1,0.5C200.6,220.1,200.8,220.1,200.9,220.1z"/>
		<path fill="#EA6E2F" d="M203.2,220.4c-0.3,0-0.5-0.1-0.7-0.3s-0.2-0.4-0.2-0.7c0-0.3,0.1-0.5,0.2-0.7c0.2-0.2,0.4-0.3,0.6-0.3
			c0.2,0,0.4,0.1,0.6,0.2c0.1,0.2,0.2,0.4,0.2,0.6v0.2h-1.3c0,0.2,0.1,0.4,0.2,0.5s0.3,0.2,0.5,0.2c0.2,0,0.4,0,0.6-0.1v0.3
			c-0.1,0-0.2,0.1-0.3,0.1C203.4,220.3,203.3,220.4,203.2,220.4z M203.1,218.6c-0.2,0-0.3,0-0.4,0.1c-0.1,0.1-0.1,0.2-0.2,0.4h1
			c0-0.2,0-0.3-0.1-0.4C203.4,218.7,203.3,218.6,203.1,218.6z"/>
	</g>
	<circle fill="#FFC122" cx="178.7" cy="225.1" r="1.1"/>
	<rect x="173.1" y="223.7" fill="none" width="35.7" height="7.8"/>
	<g enable-background="new    ">
		<path fill="#EA6E2F" d="M182.4,224c-0.3,0-0.5,0.1-0.7,0.3c-0.2,0.2-0.2,0.4-0.2,0.8c0,0.3,0.1,0.6,0.2,0.8s0.4,0.3,0.7,0.3
			c0.2,0,0.4,0,0.6-0.1v0.3c-0.2,0.1-0.4,0.1-0.6,0.1c-0.4,0-0.7-0.1-0.9-0.3s-0.3-0.5-0.3-1c0-0.3,0-0.5,0.1-0.7s0.2-0.3,0.4-0.5
			c0.2-0.1,0.4-0.2,0.7-0.2c0.3,0,0.5,0,0.7,0.1l-0.1,0.3C182.8,224.1,182.6,224,182.4,224z"/>
		<path fill="#EA6E2F" d="M185.2,225.4c0,0.3-0.1,0.6-0.2,0.7c-0.2,0.2-0.4,0.3-0.6,0.3c-0.2,0-0.3,0-0.5-0.1
			c-0.1-0.1-0.2-0.2-0.3-0.3c-0.1-0.1-0.1-0.3-0.1-0.5c0-0.3,0.1-0.6,0.2-0.7c0.2-0.2,0.4-0.3,0.6-0.3c0.3,0,0.5,0.1,0.6,0.3
			C185.1,224.9,185.2,225.1,185.2,225.4z M183.7,225.4c0,0.2,0,0.4,0.1,0.6c0.1,0.1,0.2,0.2,0.4,0.2c0.2,0,0.3-0.1,0.4-0.2
			c0.1-0.1,0.1-0.3,0.1-0.6c0-0.2,0-0.4-0.1-0.5s-0.2-0.2-0.4-0.2c-0.2,0-0.3,0.1-0.4,0.2C183.8,225,183.7,225.2,183.7,225.4z"/>
		<path fill="#EA6E2F" d="M187.3,225.4c0,0.3-0.1,0.6-0.2,0.7c-0.2,0.2-0.4,0.3-0.6,0.3c-0.2,0-0.3,0-0.5-0.1
			c-0.1-0.1-0.2-0.2-0.3-0.3c-0.1-0.1-0.1-0.3-0.1-0.5c0-0.3,0.1-0.6,0.2-0.7c0.2-0.2,0.4-0.3,0.6-0.3c0.3,0,0.5,0.1,0.6,0.3
			C187.3,224.9,187.3,225.1,187.3,225.4z M185.9,225.4c0,0.2,0,0.4,0.1,0.6c0.1,0.1,0.2,0.2,0.4,0.2c0.2,0,0.3-0.1,0.4-0.2
			c0.1-0.1,0.1-0.3,0.1-0.6c0-0.2,0-0.4-0.1-0.5s-0.2-0.2-0.4-0.2c-0.2,0-0.3,0.1-0.4,0.2C185.9,225,185.9,225.2,185.9,225.4z"/>
		<path fill="#EA6E2F" d="M188.1,226.3h-0.3v-2.7h0.3V226.3z"/>
		<path fill="#EA6E2F" d="M191.5,226.3h-0.3l-0.9-1.2l-0.3,0.2v1h-0.3v-2.5h0.3v1.3l1.1-1.3h0.3l-1,1.1L191.5,226.3z"/>
		<path fill="#EA6E2F" d="M191.8,223.9c0-0.1,0-0.1,0-0.1c0,0,0.1,0,0.1,0c0,0,0.1,0,0.1,0c0,0,0.1,0.1,0.1,0.1s0,0.1-0.1,0.1
			c0,0-0.1,0-0.1,0c0,0-0.1,0-0.1,0C191.8,224,191.8,224,191.8,223.9z M192.1,226.3h-0.3v-1.9h0.3V226.3z"/>
		<path fill="#EA6E2F" d="M193.3,226.1c0.1,0,0.1,0,0.1,0s0.1,0,0.1,0v0.2c0,0-0.1,0-0.1,0c-0.1,0-0.1,0-0.2,0
			c-0.4,0-0.6-0.2-0.6-0.6v-1.1h-0.3v-0.1l0.3-0.1l0.1-0.4h0.2v0.4h0.6v0.2H193v1.1c0,0.1,0,0.2,0.1,0.3
			C193.2,226.1,193.3,226.1,193.3,226.1z"/>
		<path fill="#EA6E2F" d="M194.6,226.1c0.1,0,0.1,0,0.1,0s0.1,0,0.1,0v0.2c0,0-0.1,0-0.1,0c-0.1,0-0.1,0-0.2,0
			c-0.4,0-0.6-0.2-0.6-0.6v-1.1h-0.3v-0.1l0.3-0.1l0.1-0.4h0.2v0.4h0.6v0.2h-0.6v1.1c0,0.1,0,0.2,0.1,0.3
			C194.4,226.1,194.5,226.1,194.6,226.1z"/>
		<path fill="#EA6E2F" d="M196,226.4c-0.3,0-0.5-0.1-0.7-0.3c-0.2-0.2-0.2-0.4-0.2-0.7c0-0.3,0.1-0.5,0.2-0.7
			c0.2-0.2,0.4-0.3,0.6-0.3c0.2,0,0.4,0.1,0.6,0.2c0.1,0.2,0.2,0.4,0.2,0.6v0.2h-1.3c0,0.2,0.1,0.4,0.2,0.5s0.3,0.2,0.5,0.2
			c0.2,0,0.4,0,0.6-0.1v0.3c-0.1,0-0.2,0.1-0.3,0.1C196.3,226.4,196.2,226.4,196,226.4z M196,224.7c-0.2,0-0.3,0-0.4,0.1
			c-0.1,0.1-0.1,0.2-0.2,0.4h1c0-0.2,0-0.3-0.1-0.4S196.1,224.7,196,224.7z"/>
		<path fill="#EA6E2F" d="M198.5,226.3v-1.2c0-0.2,0-0.3-0.1-0.3c-0.1-0.1-0.2-0.1-0.3-0.1c-0.2,0-0.3,0.1-0.4,0.2s-0.1,0.3-0.1,0.5
			v1h-0.3v-1.9h0.2l0,0.3h0c0.1-0.1,0.1-0.2,0.2-0.2c0.1-0.1,0.2-0.1,0.4-0.1c0.2,0,0.4,0.1,0.5,0.2c0.1,0.1,0.2,0.3,0.2,0.5v1.2
			H198.5z"/>
		<path fill="#EA6E2F" d="M200.6,225.8c0,0.2-0.1,0.3-0.2,0.4s-0.3,0.1-0.6,0.1c-0.3,0-0.4,0-0.6-0.1V226c0.1,0,0.2,0.1,0.3,0.1
			c0.1,0,0.2,0,0.3,0c0.1,0,0.3,0,0.3-0.1c0.1,0,0.1-0.1,0.1-0.2c0-0.1,0-0.1-0.1-0.2s-0.2-0.1-0.4-0.2c-0.2-0.1-0.3-0.1-0.4-0.2
			c-0.1,0-0.1-0.1-0.2-0.2c0-0.1-0.1-0.1-0.1-0.2c0-0.2,0.1-0.3,0.2-0.4c0.1-0.1,0.3-0.1,0.5-0.1c0.2,0,0.4,0,0.6,0.1l-0.1,0.2
			c-0.2-0.1-0.4-0.1-0.5-0.1c-0.1,0-0.2,0-0.3,0.1c-0.1,0-0.1,0.1-0.1,0.2c0,0.1,0,0.1,0,0.1c0,0,0.1,0.1,0.1,0.1
			c0.1,0,0.2,0.1,0.3,0.1c0.2,0.1,0.4,0.2,0.5,0.2C200.6,225.6,200.6,225.7,200.6,225.8z"/>
	</g>
	<g>
		<circle fill="#E8EAEA" cx="182.5" cy="111.2" r="46"/>
		<path fill="#FFA09E" d="M223.4,71.5c-22.9-22.9-59.9-22.9-82.8,0s-22.9,59.9,0,82.8c21.1,21.1,54.3,22.7,77.3,4.8l15.9,15.9v10.3
			l51.7,51.7l20.7-20.7l-51.7-51.7h-10.3l-15.9-15.9C246.1,125.8,244.5,92.7,223.4,71.5z M150.9,144c-17.1-17.1-17.1-44.9,0-62.1
			s44.9-17.1,62.1,0s17.1,44.9,0,62.1C195.9,161.1,168.1,161.1,150.9,144z"/>
		<g enable-background="new    ">
			<path fill="#205D76" d="M155,98.8c0.3-0.4,0.7-0.6,1.2-0.6c1.1,0,1.6,0.9,1.6,2.2c0,1.3-0.6,2.2-1.7,2.2c-0.5,0-0.9-0.2-1.1-0.5
				l0,0.4h-0.6v-5.9l0.7-0.1V98.8z M157.1,100.4c0-1.1-0.3-1.7-1-1.7c-0.5,0-0.8,0.3-1.1,0.7v2.1c0.2,0.3,0.6,0.5,1,0.5
				C156.7,102.1,157.1,101.5,157.1,100.4z"/>
			<path fill="#205D76" d="M162.5,100.4c0,1.3-0.6,2.2-1.8,2.2c-1.2,0-1.8-0.9-1.8-2.2c0-1.3,0.6-2.2,1.8-2.2
				C161.9,98.2,162.5,99.1,162.5,100.4z M159.6,100.4c0,1.1,0.4,1.6,1.1,1.6c0.7,0,1.1-0.5,1.1-1.7c0-1.1-0.4-1.6-1.1-1.6
				C160,98.7,159.6,99.3,159.6,100.4z"/>
			<path fill="#205D76" d="M167.1,102.5h-0.6l-0.1-0.6c-0.3,0.4-0.7,0.6-1.2,0.6c-1.1,0-1.6-0.9-1.6-2.2c0-1.3,0.6-2.2,1.7-2.2
				c0.5,0,0.8,0.2,1.1,0.5v-2.2l0.7,0.1V102.5z M164.4,100.4c0,1.1,0.4,1.7,1,1.7c0.5,0,0.8-0.3,1-0.7v-2.1c-0.2-0.3-0.6-0.5-1-0.5
				C164.8,98.7,164.4,99.3,164.4,100.4z"/>
			<path fill="#205D76" d="M170.8,102.5c-0.3,0.9-0.8,1.6-1.9,1.7l-0.1-0.5c0.9-0.2,1.1-0.5,1.3-1.2h-0.2l-1.5-4.2h0.7l1.2,3.7
				l1.2-3.7h0.7L170.8,102.5z"/>
			<path fill="#205D76" d="M181.1,96.4c-0.6,0-1,0.2-1,0.6v1.6c0,0.7-0.3,1-0.9,1.1c0.6,0.1,0.9,0.4,0.9,1.1v1.6
				c0,0.5,0.4,0.6,1,0.6v0.5c-0.9,0-1.6-0.2-1.6-1.2v-1.5c0-0.5-0.3-0.8-0.8-0.8v-0.5c0.6,0,0.8-0.3,0.8-0.8v-1.5
				c0-1,0.7-1.2,1.6-1.2V96.4z"/>
		</g>
		<g enable-background="new    ">
			<path fill="#205D76" d="M164.6,108.4c0.3-0.4,0.7-0.6,1.2-0.6c1.1,0,1.6,0.9,1.6,2.2c0,1.3-0.6,2.2-1.7,2.2
				c-0.5,0-0.9-0.2-1.1-0.5l0,0.4h-0.6v-5.9l0.7-0.1V108.4z M166.7,110c0-1.1-0.3-1.7-1-1.7c-0.5,0-0.8,0.3-1.1,0.7v2.1
				c0.2,0.3,0.6,0.5,1,0.5C166.3,111.7,166.7,111.1,166.7,110z"/>
			<path fill="#205D76" d="M171.7,111.2c0,0.3,0.1,0.5,0.3,0.5l-0.2,0.5c-0.4,0-0.6-0.2-0.8-0.6c-0.3,0.4-0.8,0.6-1.3,0.6
				c-0.8,0-1.4-0.5-1.4-1.3c0-0.9,0.7-1.4,2-1.4h0.6v-0.4c0-0.6-0.4-0.8-1-0.8c-0.3,0-0.7,0.1-1.1,0.2l-0.2-0.5
				c0.5-0.2,1-0.3,1.4-0.3c1,0,1.6,0.5,1.6,1.4V111.2z M171.1,111.1V110h-0.6c-0.9,0-1.3,0.3-1.3,0.9c0,0.5,0.3,0.8,0.8,0.8
				C170.4,111.7,170.8,111.5,171.1,111.1z"/>
			<path fill="#205D76" d="M176.5,111.2l0.3,0.5c-0.4,0.3-0.9,0.5-1.4,0.5c-1.3,0-2-0.9-2-2.2c0-1.3,0.7-2.2,2-2.2
				c0.5,0,1,0.2,1.4,0.5l-0.3,0.5c-0.4-0.3-0.7-0.4-1.1-0.4c-0.7,0-1.2,0.5-1.2,1.7c0,1.1,0.5,1.6,1.2,1.6
				C175.9,111.6,176.2,111.5,176.5,111.2z"/>
			<path fill="#205D76" d="M178.4,112.1v-5.9l0.7-0.1v6H178.4z M182.1,112.1h-0.9l-2.1-2.3l1.9-1.9h0.9l-1.9,1.9L182.1,112.1z"/>
			<path fill="#205D76" d="M186.8,108.1c-0.4,0.1-0.8,0.1-1.2,0.1c0.5,0.2,0.7,0.6,0.7,1.1c0,0.8-0.6,1.4-1.6,1.4
				c-0.3,0-0.5,0-0.6-0.1c-0.1,0.1-0.2,0.3-0.2,0.4c0,0.2,0.1,0.4,0.6,0.4h0.8c0.8,0,1.5,0.5,1.5,1.1c0,0.8-0.7,1.3-2,1.3
				c-1.3,0-1.8-0.4-1.8-1.3h0.6c0,0.5,0.2,0.7,1.2,0.7c0.9,0,1.3-0.2,1.3-0.7c0-0.4-0.4-0.6-1-0.6h-0.8c-0.7,0-1.1-0.4-1.1-0.8
				c0-0.3,0.2-0.5,0.5-0.7c-0.5-0.2-0.7-0.6-0.7-1.2c0-0.9,0.7-1.5,1.7-1.5c1.1,0,1.4-0.1,1.9-0.4L186.8,108.1z M183.6,109.3
				c0,0.6,0.3,1,1,1c0.6,0,0.9-0.4,0.9-1c0-0.6-0.3-1-0.9-1C184,108.3,183.6,108.7,183.6,109.3z"/>
			<path fill="#205D76" d="M187.9,111.6h1v-3.2h-1v-0.5h1.6l0.1,0.8c0.2-0.6,0.7-0.9,1.2-0.9c0.2,0,0.4,0,0.6,0.1l-0.1,0.7
				c-0.2,0-0.3-0.1-0.5-0.1c-0.6,0-1,0.6-1.2,1.1v2h1.2v0.5h-2.8V111.6z"/>
			<path fill="#205D76" d="M196.1,110c0,1.3-0.6,2.2-1.8,2.2c-1.2,0-1.8-0.9-1.8-2.2c0-1.3,0.6-2.2,1.8-2.2
				C195.5,107.8,196.1,108.7,196.1,110z M193.2,110c0,1.1,0.4,1.6,1.1,1.6c0.7,0,1.1-0.5,1.1-1.7c0-1.1-0.4-1.6-1.1-1.6
				C193.6,108.3,193.2,108.9,193.2,110z"/>
			<path fill="#205D76" d="M198.2,110.9c0,0.6,0.2,0.8,0.7,0.8c0.5,0,0.9-0.3,1.1-0.7v-3.1h0.7v4.2h-0.6l-0.1-0.6
				c-0.3,0.4-0.9,0.7-1.3,0.7c-0.8,0-1.2-0.5-1.2-1.2v-3.1h0.7V110.9z"/>
			<path fill="#205D76" d="M202.9,107.9l0,0.6c0.3-0.4,0.9-0.7,1.4-0.7c0.8,0,1.2,0.5,1.2,1.2v3.1h-0.7v-2.6c0-0.9-0.1-1.2-0.7-1.2
				c-0.5,0-0.9,0.4-1.1,0.7v3.1h-0.7v-4.2H202.9z"/>
			<path fill="#205D76" d="M210.3,112.1h-0.6l-0.1-0.6c-0.3,0.4-0.7,0.6-1.2,0.6c-1.1,0-1.6-0.9-1.6-2.2c0-1.3,0.6-2.2,1.7-2.2
				c0.5,0,0.8,0.2,1.1,0.5v-2.2l0.7,0.1V112.1z M207.6,110c0,1.1,0.4,1.7,1,1.7c0.5,0,0.8-0.3,1-0.7v-2.1c-0.2-0.3-0.6-0.5-1-0.5
				C208,108.3,207.6,108.9,207.6,110z"/>
			<path fill="#205D76" d="M213.5,108c0.4,0,0.6,0.3,0.6,0.6c0,0.4-0.3,0.7-0.6,0.7s-0.6-0.3-0.6-0.7
				C212.9,108.3,213.2,108,213.5,108z M213.5,110.9c0.4,0,0.6,0.3,0.6,0.6c0,0.4-0.3,0.6-0.6,0.6s-0.6-0.3-0.6-0.6
				C212.9,111.2,213.2,110.9,213.5,110.9z"/>
		</g>
		<g enable-background="new    ">
			<path fill="#205D76" d="M167.2,119.8v0.5h-0.7l-0.2,1.4h-0.6l0.2-1.4h-1.2l-0.2,1.4H164l0.2-1.4h-0.6v-0.5h0.7l0.2-1.8h-0.6v-0.5
				h0.7l0.2-1.3h0.6l-0.2,1.3h1.2l0.2-1.3h0.6l-0.2,1.3h0.6v0.5h-0.7l-0.2,1.8H167.2z M166.2,118.1h-1.2l-0.2,1.8h1.2L166.2,118.1z"
				/>
			<path fill="#205D76" d="M171.9,118.7v0.6h-2.2v2.5H169v-5.5h3.2l-0.1,0.6h-2.5v1.9H171.9z"/>
			<path fill="#205D76" d="M173.6,121.7h-0.7l1.8-5.5h0.9l1.8,5.5h-0.7l-0.4-1.4H174L173.6,121.7z M175.1,116.8l-0.9,3h1.8
				L175.1,116.8z"/>
			<path fill="#205D76" d="M181.5,118.7v0.6h-2.2v2.5h-0.7v-5.5h3.2l-0.1,0.6h-2.5v1.9H181.5z"/>
			<path fill="#205D76" d="M185.4,118.8c0.7,0.3,1.2,0.8,1.2,1.5c0,0.9-0.7,1.6-1.9,1.6c-1.2,0-1.9-0.7-1.9-1.6
				c0-0.7,0.4-1.1,1.1-1.4c-0.6-0.3-0.9-0.6-0.9-1.3c0-1,0.9-1.4,1.6-1.4c0.8,0,1.6,0.4,1.6,1.4C186.4,118.1,186,118.4,185.4,118.8z
				 M184.4,119c-0.5,0.2-0.9,0.6-0.9,1.2c0,0.6,0.4,1,1.2,1s1.2-0.4,1.2-1C185.9,119.5,185.3,119.3,184.4,119z M185,118.6
				c0.5-0.3,0.8-0.5,0.8-1c0-0.6-0.4-0.9-1-0.9c-0.6,0-1,0.3-1,0.9C183.7,118.2,184.2,118.3,185,118.6z"/>
			<path fill="#205D76" d="M189.1,121.7h-1.3v-5.5h1.2c1.3,0,2.6,0.4,2.6,2.7C191.5,121.2,190.2,121.7,189.1,121.7z M189.1,116.8
				h-0.7v4.4h0.7c0.8,0,1.7-0.4,1.7-2.2C190.8,117,189.9,116.8,189.1,116.8z"/>
			<path fill="#205D76" d="M192.8,121.7h-0.7l1.8-5.5h0.9l1.8,5.5h-0.7l-0.4-1.4h-2.2L192.8,121.7z M194.3,116.8l-0.9,3h1.8
				L194.3,116.8z"/>
			<path fill="#205D76" d="M199.8,121c0,0.2,0,0.4-0.2,0.6l-0.7,1.5h-0.6l0.4-1.6c-0.2-0.1-0.3-0.3-0.3-0.5c0-0.4,0.3-0.6,0.6-0.6
				C199.5,120.4,199.8,120.7,199.8,121z M199.8,118.3c0,0.4-0.3,0.7-0.6,0.7s-0.6-0.3-0.6-0.7c0-0.4,0.3-0.6,0.6-0.6
				S199.8,117.9,199.8,118.3z"/>
		</g>
		<g enable-background="new    ">
			<path fill="#205D76" d="M154.7,124.6c0.9,0,1.6,0.3,1.6,1.2v1.5c0,0.5,0.3,0.8,0.8,0.8v0.5c-0.6,0-0.8,0.3-0.8,0.8v1.5
				c0,1-0.7,1.2-1.6,1.2v-0.5c0.6,0,1-0.1,1-0.6v-1.6c0-0.7,0.3-1,0.9-1.1c-0.6-0.1-0.9-0.4-0.9-1.1v-1.6c0-0.5-0.4-0.6-1-0.6V124.6
				z"/>
		</g>
	</g>
</g>
</svg>
