<?xml version="1.0" encoding="utf-8"?>
<!-- Generator: Adobe Illustrator 18.1.1, SVG Export Plug-In . SVG Version: 6.00 Build 0)  -->
<!DOCTYPE svg PUBLIC "-//W3C//DTD SVG 1.1//EN" "http://www.w3.org/Graphics/SVG/1.1/DTD/svg11.dtd">
<svg version="1.1" id="Layer_1" xmlns="http://www.w3.org/2000/svg" xmlns:xlink="http://www.w3.org/1999/xlink" x="0px" y="0px"
	 viewBox="0 0 600 400" enable-background="new 0 0 600 400" xml:space="preserve">
<g>
	<path fill="#C9C9C9" d="M434.5,60.9c0,1.8-1.1,3.3-2.4,3.3H167.9c-1.3,0-2.4-1.5-2.4-3.3V39.6c0-1.8,1.1-3.3,2.4-3.3h264.2
		c1.3,0,2.4,1.5,2.4,3.3V60.9z"/>
	<g>
		<circle fill="#9D9E9D" cx="174.2" cy="44.2" r="3.7"/>
		<circle fill="#9D9E9D" cx="184.5" cy="44.2" r="3.7"/>
		<circle fill="#9D9E9D" cx="194.6" cy="44.2" r="3.7"/>
	</g>
</g>
<path fill="#FAF8DA" stroke="#FAF8DA" stroke-width="0.1139" stroke-miterlimit="10" d="M434.5,51.3v310.5c0,1.1-0.4,1.9-0.8,1.9
	H166.3c-0.4,0-0.8-0.9-0.8-1.9V52.3"/>
<g>
	<path fill="#205D76" d="M185.9,75.7l-8-3.9v-0.9l8-3.9v1.4l-6.2,3l6.2,3V75.7z"/>
	<path fill="#205D76" d="M194.9,77.6v-6.1c0-1.5-0.7-2.3-2.1-2.3c-1.8,0-2.7,1.1-2.7,3.4v4.9h-1.6V64.1h1.6v4l-0.1,1.2h0.1
		c0.6-1,1.6-1.5,2.9-1.5c2.2,0,3.4,1.2,3.4,3.5v6.2L194.9,77.6L194.9,77.6z"/>
	<path fill="#205D76" d="M206.7,76.3v1.2c-0.8,0.2-1.5,0.3-2.2,0.3c-2.1,0-3.1-1-3.1-3v-5.5H199v-0.8l2.3-0.4l0.7-2.5h0.9v2.5h3.8
		v1.2h-3.8v5.5c0,1.1,0.6,1.7,1.7,1.7C205.1,76.5,205.8,76.4,206.7,76.3z"/>
	<path fill="#205D76" d="M216.9,77.6v-6.1c0-0.8-0.1-1.4-0.2-1.8c-0.2-0.3-0.4-0.5-0.8-0.5c-0.5,0-0.9,0.2-1.1,0.7
		c-0.2,0.5-0.3,1.3-0.3,2.4v5.2h-1.4v-6.1c0-1.5-0.4-2.3-1.1-2.3c-0.5,0-0.8,0.2-1,0.7s-0.3,1.4-0.3,2.8v4.9h-1.4V68h1.1l0.2,1.3
		h0.1c0.4-1,1-1.5,1.7-1.5c0.9,0,1.6,0.5,1.8,1.6h0.1c0.4-1.1,1.1-1.6,1.9-1.6c0.7,0,1.3,0.3,1.6,0.8s0.5,1.4,0.5,2.7v6.2
		L216.9,77.6L216.9,77.6z"/>
	<path fill="#205D76" d="M223.7,65.4l-2.3-0.2v-1.1h3.9v12.2l3,0.2v1.1h-7.6v-1.1l3-0.2L223.7,65.4L223.7,65.4z"/>
	<path fill="#205D76" d="M231.1,74.3l6.2-3l-6.2-3V67l8,3.9v0.9l-8,3.9V74.3z"/>
	<path fill="#205D76" d="M207.1,118.3l-8-3.9v-0.9l8-3.9v1.4l-6.2,3l6.2,3V118.3z"/>
	<path fill="#205D76" d="M216.2,120.2v-6.1c0-1.5-0.7-2.3-2.1-2.3c-1.8,0-2.7,1.1-2.7,3.4v4.9h-1.6v-13.4h1.6v4l-0.1,1.2h0.1
		c0.6-1,1.6-1.5,2.9-1.5c2.2,0,3.4,1.2,3.4,3.5v6.2h-1.5V120.2z"/>
	<path fill="#205D76" d="M228.6,115.7h-6.7c0,2.2,1,3.2,3,3.2c1.1,0,2.2-0.2,3.2-0.7v1.4c-1,0.4-2,0.6-3.2,0.6
		c-1.4,0-2.5-0.4-3.4-1.3c-0.8-0.9-1.3-2.1-1.3-3.6s0.4-2.8,1.2-3.6c0.8-0.9,1.8-1.3,3.1-1.3c1.2,0,2.2,0.4,2.9,1.2
		c0.7,0.8,1.1,1.8,1.1,3.1L228.6,115.7L228.6,115.7z M221.9,114.4h5c0-1.8-0.8-2.6-2.4-2.6C223,111.8,222.1,112.7,221.9,114.4z"/>
	<path fill="#205D76" d="M237.5,120.2l-0.3-1.3h-0.1c-0.4,0.6-0.9,0.9-1.4,1.2c-0.5,0.2-1.1,0.3-1.8,0.3c-0.9,0-1.7-0.2-2.2-0.7
		s-0.8-1.2-0.8-2.1c0-1.9,1.5-2.9,4.4-3l1.8-0.1v-0.6c0-1.4-0.7-2-2.1-2c-0.8,0-1.8,0.2-2.8,0.7l-0.5-1.2c1.1-0.6,2.2-0.8,3.3-0.8
		c1.3,0,2.3,0.3,2.8,0.8c0.6,0.5,0.9,1.3,0.9,2.4v6.5h-1.2V120.2z M237.1,115.5l-1.4,0.1c-1.1,0-1.9,0.2-2.4,0.5s-0.7,0.8-0.7,1.4
		c0,1,0.6,1.5,1.7,1.5c0.8,0,1.5-0.2,2-0.7s0.8-1.1,0.8-2L237.1,115.5L237.1,115.5z"/>
	<path fill="#205D76" d="M248.2,118.9L248.2,118.9c-0.7,1-1.7,1.4-2.9,1.4s-2.1-0.4-2.7-1.3c-0.7-0.9-1-2.1-1-3.6
		c0-1.6,0.3-2.8,1-3.6c0.7-0.9,1.6-1.3,2.7-1.3c1.2,0,2.1,0.5,2.8,1.4h0.1c-0.1-0.7-0.1-1.2-0.1-1.4v-3.8h1.6v13.5h-1.3L248.2,118.9
		z M248.1,115.8v-0.4c0-1.3-0.2-2.2-0.6-2.8c-0.4-0.6-1-0.8-1.9-0.8c-1.6,0-2.4,1.2-2.4,3.7c0,2.4,0.8,3.6,2.4,3.6
		c0.9,0,1.5-0.3,1.9-0.8C247.9,117.8,248.1,116.9,248.1,115.8z"/>
	<path fill="#205D76" d="M252.4,116.9l6.2-3l-6.2-3v-1.4l8,3.9v0.9l-8,3.9L252.4,116.9L252.4,116.9z"/>
	<path fill="#205D76" d="M228.4,139.5l-8-3.9v-0.9l8-3.9v1.4l-6.2,3l6.2,3V139.5z"/>
	<path fill="#205D76" d="M238.6,140.2v1.2c-0.8,0.2-1.5,0.3-2.2,0.3c-2.1,0-3.1-1-3.1-3v-5.5H231v-0.8l2.3-0.4l0.7-2.5h0.9v2.5h3.8
		v1.2h-3.8v5.5c0,1.1,0.6,1.7,1.7,1.7C237,140.3,237.7,140.3,238.6,140.2z"/>
	<path fill="#205D76" d="M245.1,133.2l-2.3-0.2v-1.1h3.9v8.3l3,0.2v1.1h-7.6v-1.1l3-0.2L245.1,133.2L245.1,133.2z M245.9,128
		c0.6,0,0.9,0.3,0.9,1c0,0.3-0.1,0.6-0.3,0.7c-0.2,0.2-0.4,0.2-0.6,0.2c-0.6,0-0.9-0.3-0.9-1C245,128.4,245.3,128,245.9,128z"/>
	<path fill="#205D76" d="M259.9,140.2v1.2c-0.8,0.2-1.5,0.3-2.2,0.3c-2.1,0-3.1-1-3.1-3v-5.5h-2.3v-0.8l2.3-0.4l0.7-2.5h0.9v2.5h3.8
		v1.2h-3.8v5.5c0,1.1,0.6,1.7,1.7,1.7C258.3,140.3,259,140.3,259.9,140.2z"/>
	<path fill="#205D76" d="M266.3,129.2L264,129v-1h3.9v12.2l3,0.2v1.1h-7.6v-1.1l3-0.2V129.2z"/>
	<path fill="#205D76" d="M281.8,137h-6.7c0,2.2,1,3.2,3,3.2c1.1,0,2.2-0.2,3.2-0.7v1.4c-1,0.4-2,0.6-3.2,0.6c-1.4,0-2.5-0.4-3.4-1.3
		c-0.8-0.9-1.3-2.1-1.3-3.6s0.4-2.8,1.2-3.6c0.8-0.9,1.8-1.3,3.1-1.3c1.2,0,2.2,0.4,2.9,1.2c0.7,0.8,1.1,1.8,1.1,3.1L281.8,137
		L281.8,137z M275.1,135.7h5c0-1.8-0.8-2.6-2.4-2.6C276.2,133.1,275.3,134,275.1,135.7z"/>
	<path fill="#205D76" d="M284.3,138.2l6.2-3l-6.2-3v-1.4l8,3.9v0.9l-8,3.9V138.2z"/>
	<path fill="#205D76" d="M313.6,139.5l-8-3.9v-0.9l8-3.9v1.4l-6.2,3l6.2,3V139.5z"/>
	<path fill="#205D76" d="M323.7,128.8l-5.4,12.7h-1.5l5.4-12.7H323.7z"/>
	<path fill="#205D76" d="M334.4,140.2v1.2c-0.8,0.2-1.5,0.3-2.2,0.3c-2.1,0-3.1-1-3.1-3v-5.5h-2.3v-0.8l2.3-0.4l0.7-2.5h0.9v2.5h3.8
		v1.2h-3.8v5.5c0,1.1,0.6,1.7,1.7,1.7C332.8,140.3,333.5,140.3,334.4,140.2z"/>
	<path fill="#205D76" d="M340.9,133.2l-2.3-0.2v-1.1h3.9v8.3l3,0.2v1.1h-7.6v-1.1l3-0.2V133.2z M341.7,128c0.6,0,0.9,0.3,0.9,1
		c0,0.3-0.1,0.6-0.3,0.7c-0.2,0.2-0.4,0.2-0.6,0.2c-0.6,0-0.9-0.3-0.9-1C340.7,128.4,341,128,341.7,128z"/>
	<path fill="#205D76" d="M355.6,140.2v1.2c-0.8,0.2-1.5,0.3-2.2,0.3c-2.1,0-3.1-1-3.1-3v-5.5H348v-0.8l2.3-0.4l0.7-2.5h0.9v2.5h3.8
		v1.2h-3.8v5.5c0,1.1,0.6,1.7,1.7,1.7C354.1,140.3,354.8,140.3,355.6,140.2z"/>
	<path fill="#205D76" d="M362.1,129.2l-2.3-0.2v-1h3.9v12.2l3,0.2v1.1h-7.6v-1.1l3-0.2V129.2z"/>
	<path fill="#205D76" d="M377.6,137h-6.7c0,2.2,1,3.2,3,3.2c1.1,0,2.2-0.2,3.2-0.7v1.4c-1,0.4-2,0.6-3.2,0.6c-1.4,0-2.5-0.4-3.4-1.3
		c-0.8-0.9-1.3-2.1-1.3-3.6s0.4-2.8,1.2-3.6c0.8-0.9,1.8-1.3,3.1-1.3c1.2,0,2.2,0.4,2.9,1.2c0.7,0.8,1.1,1.8,1.1,3.1L377.6,137
		L377.6,137z M370.9,135.7h5c0-1.8-0.8-2.6-2.4-2.6S371.1,134,370.9,135.7z"/>
	<path fill="#205D76" d="M380.1,138.2l6.2-3l-6.2-3v-1.4l8,3.9v0.9l-8,3.9V138.2z"/>
	<path fill="#205D76" d="M207.1,160.8l-8-3.9V156l8-3.9v1.4l-6.2,3l6.2,3V160.8z"/>
	<path fill="#205D76" d="M217.3,150.1l-5.4,12.7h-1.5l5.4-12.7C215.8,150.1,217.3,150.1,217.3,150.1z"/>
	<path fill="#205D76" d="M226.8,162.7v-6.1c0-1.5-0.7-2.3-2.1-2.3c-1.8,0-2.7,1.1-2.7,3.4v4.9h-1.6v-13.5h1.6v4l-0.1,1.2h0.1
		c0.6-1,1.6-1.5,2.9-1.5c2.2,0,3.4,1.2,3.4,3.5v6.2h-1.5V162.7z"/>
	<path fill="#205D76" d="M239.2,158.3h-6.7c0,2.2,1,3.2,3,3.2c1.1,0,2.2-0.2,3.2-0.7v1.4c-1,0.4-2,0.6-3.2,0.6
		c-1.4,0-2.5-0.4-3.4-1.3c-0.8-0.9-1.3-2.1-1.3-3.6s0.4-2.8,1.2-3.6c0.8-0.9,1.8-1.3,3.1-1.3c1.2,0,2.2,0.4,2.9,1.2s1.1,1.8,1.1,3.1
		L239.2,158.3L239.2,158.3z M232.6,157h5c0-1.8-0.8-2.6-2.4-2.6C233.6,154.4,232.7,155.2,232.6,157z"/>
	<path fill="#205D76" d="M248.1,162.7l-0.3-1.3h-0.1c-0.4,0.6-0.9,0.9-1.4,1.2c-0.5,0.2-1.1,0.3-1.8,0.3c-0.9,0-1.7-0.2-2.2-0.7
		s-0.8-1.2-0.8-2.1c0-1.9,1.5-2.9,4.4-3l1.8-0.1v-0.6c0-1.4-0.7-2-2.1-2c-0.8,0-1.8,0.2-2.8,0.7l-0.5-1.2c1.1-0.6,2.2-0.8,3.3-0.8
		c1.3,0,2.3,0.3,2.8,0.8c0.6,0.5,0.9,1.3,0.9,2.4v6.5L248.1,162.7L248.1,162.7z M247.7,158.1l-1.4,0.1c-1.1,0-1.9,0.2-2.4,0.5
		s-0.7,0.8-0.7,1.4c0,1,0.6,1.5,1.7,1.5c0.8,0,1.5-0.2,2-0.7s0.8-1.1,0.8-2L247.7,158.1L247.7,158.1z"/>
	<path fill="#205D76" d="M258.8,161.5L258.8,161.5c-0.7,1-1.7,1.4-2.9,1.4c-1.2,0-2.1-0.4-2.7-1.3c-0.7-0.9-1-2.1-1-3.6
		c0-1.6,0.3-2.8,1-3.6c0.7-0.9,1.6-1.3,2.7-1.3c1.2,0,2.1,0.5,2.8,1.4h0.1c-0.1-0.7-0.1-1.2-0.1-1.4v-3.8h1.6v13.5H259L258.8,161.5z
		 M258.7,158.4V158c0-1.3-0.2-2.2-0.6-2.8s-1-0.8-1.9-0.8c-1.6,0-2.4,1.2-2.4,3.7c0,2.4,0.8,3.6,2.4,3.6c0.9,0,1.5-0.3,1.9-0.8
		C258.5,160.3,258.7,159.5,258.7,158.4z"/>
	<path fill="#205D76" d="M263,159.4l6.2-3l-6.2-3V152l8,3.9v0.9l-8,3.9V159.4z"/>
	<path fill="#205D76" d="M207.1,203.4l-8-3.9v-0.9l8-3.9v1.4l-6.2,3l6.2,3V203.4z"/>
	<path fill="#205D76" d="M211.4,204.1h-0.1l-0.3,1.2h-1.2v-13.5h1.6v3.3c0,0.5,0,1.1-0.1,2h0.1c0.6-0.9,1.5-1.4,2.8-1.4
		c1.2,0,2.1,0.4,2.7,1.3c0.7,0.9,1,2.1,1,3.6c0,1.6-0.3,2.8-1,3.6s-1.6,1.3-2.7,1.3C213,205.5,212.1,205,211.4,204.1z M211.4,200.5
		c0,1.3,0.2,2.2,0.6,2.8c0.4,0.6,1,0.8,1.9,0.8c1.6,0,2.4-1.2,2.4-3.7c0-2.4-0.8-3.6-2.4-3.6c-0.9,0-1.5,0.3-1.9,0.8
		C211.6,198.3,211.4,199.2,211.4,200.5z"/>
	<path fill="#205D76" d="M224.4,205.5c-1.2,0-2.3-0.4-3.1-1.3c-0.8-0.9-1.2-2.1-1.2-3.6s0.4-2.7,1.2-3.6c0.8-0.9,1.8-1.3,3.2-1.3
		c1.3,0,2.3,0.4,3.1,1.3c0.8,0.9,1.2,2.1,1.2,3.6s-0.4,2.7-1.2,3.6C226.8,205,225.7,205.5,224.4,205.5z M224.4,204.2
		c1.8,0,2.7-1.2,2.7-3.6c0-2.4-0.9-3.6-2.7-3.6s-2.7,1.2-2.7,3.6C221.7,202.9,222.6,204.2,224.4,204.2z"/>
	<path fill="#205D76" d="M237.5,204L237.5,204c-0.7,1-1.7,1.4-2.9,1.4s-2.1-0.4-2.7-1.3c-0.7-0.9-1-2.1-1-3.6c0-1.6,0.3-2.8,1-3.6
		s1.6-1.3,2.7-1.3c1.2,0,2.1,0.5,2.8,1.4h0.1c-0.1-0.7-0.1-1.2-0.1-1.4v-3.8h1.6v13.5h-1.3L237.5,204z M237.5,200.9v-0.4
		c0-1.3-0.2-2.2-0.6-2.8c-0.4-0.6-1-0.8-1.9-0.8c-1.6,0-2.4,1.2-2.4,3.7c0,2.4,0.8,3.6,2.4,3.6c0.9,0,1.5-0.3,1.9-0.8
		C237.2,202.9,237.4,202.1,237.5,200.9z"/>
	<path fill="#205D76" d="M241.1,195.8h1.6l2.3,5.7c0.5,1.2,0.7,2,0.8,2.5h0.1c0.1-0.6,0.4-1.5,0.8-2.5l2.1-5.6h1.6l-4.1,10.7
		c-0.4,1-0.8,1.8-1.4,2.3c-0.5,0.5-1.2,0.8-2.1,0.8c-0.5,0-1,0-1.5-0.1v-1.3c0.4,0.1,0.8,0.1,1.2,0.1c0.6,0,1-0.1,1.3-0.4
		c0.3-0.2,0.6-0.6,0.8-1.2l0.5-1.3L241.1,195.8z"/>
	<path fill="#205D76" d="M252.4,202l6.2-3l-6.2-3v-1.4l8,3.9v0.9l-8,3.9L252.4,202L252.4,202z"/>
	<path fill="#205D76" d="M239.1,245.9l-8-3.9v-0.9l8-3.9v1.4l-6.2,3l6.2,3V245.9z"/>
	<path fill="#205D76" d="M243.3,246.6h-0.1c0.1,0.7,0.1,1.2,0.1,1.4v4.1h-1.6v-13.8h1.3l0.2,1.3h0.1c0.6-1,1.6-1.5,2.8-1.5
		s2.1,0.4,2.7,1.3c0.7,0.9,1,2.1,1,3.6c0,1.6-0.3,2.8-1,3.6c-0.7,0.9-1.6,1.3-2.7,1.3C244.9,248,244,247.6,243.3,246.6z
		 M243.3,242.7v0.4c0,1.3,0.2,2.2,0.6,2.8c0.4,0.6,1,0.8,1.9,0.8c1.6,0,2.4-1.2,2.4-3.7c0-2.4-0.8-3.6-2.4-3.6
		c-0.9,0-1.5,0.3-1.9,0.8C243.6,240.7,243.4,241.6,243.3,242.7z"/>
	<path fill="#205D76" d="M252.4,244.6l6.2-3l-6.2-3v-1.4l8,3.9v0.9l-8,3.9L252.4,244.6L252.4,244.6z"/>
	<path fill="#205D76" d="M267.8,247.9h-1.6v-11.2h-3.6v-1.4h8.8v1.4h-3.6L267.8,247.9L267.8,247.9z"/>
	<path fill="#205D76" d="M280,247.9v-6.1c0-1.5-0.7-2.3-2.1-2.3c-1.8,0-2.7,1.1-2.7,3.4v4.9h-1.6v-13.5h1.6v4l-0.1,1.2h0.1
		c0.6-1,1.6-1.5,2.9-1.5c2.2,0,3.4,1.2,3.4,3.5v6.2H280V247.9z"/>
	<path fill="#205D76" d="M287.6,239.6l-2.3-0.2v-1.1h3.9v8.3l3,0.2v1.1h-7.6v-1.1l3-0.2V239.6z M288.4,234.4c0.6,0,0.9,0.3,0.9,1
		c0,0.3-0.1,0.6-0.3,0.7c-0.2,0.2-0.4,0.2-0.6,0.2c-0.6,0-0.9-0.3-0.9-1C287.5,234.8,287.8,234.4,288.4,234.4z"/>
	<path fill="#205D76" d="M295.4,247.4V246c1.1,0.5,2.2,0.7,3.2,0.7c1.6,0,2.4-0.5,2.4-1.4c0-0.3-0.1-0.6-0.4-0.9
		c-0.3-0.2-0.9-0.5-2-0.9c-1.3-0.5-2.2-1-2.5-1.4s-0.5-0.9-0.5-1.5c0-0.8,0.3-1.4,1-1.8c0.6-0.4,1.5-0.7,2.7-0.7
		c1.1,0,2.2,0.2,3.2,0.6L302,240c-1.1-0.4-2-0.6-2.8-0.6c-1.4,0-2,0.4-2,1.2c0,0.4,0.1,0.6,0.4,0.8s1,0.5,2,0.9
		c1.2,0.4,2,0.9,2.4,1.3c0.4,0.4,0.6,1,0.6,1.6c0,0.9-0.3,1.5-1,2s-1.6,0.7-2.9,0.7C297.2,248,296.1,247.8,295.4,247.4z"/>
	<path fill="#205D76" d="M319.6,239.6l-2.3-0.2v-1.1h3.9v8.3l3,0.2v1.1h-7.6v-1.1l3-0.2V239.6z M320.4,234.4c0.6,0,0.9,0.3,0.9,1
		c0,0.3-0.1,0.6-0.3,0.7c-0.2,0.2-0.4,0.2-0.6,0.2c-0.6,0-0.9-0.3-0.9-1C319.4,234.8,319.7,234.4,320.4,234.4z"/>
	<path fill="#205D76" d="M327.3,247.4V246c1.1,0.5,2.2,0.7,3.2,0.7c1.6,0,2.4-0.5,2.4-1.4c0-0.3-0.1-0.6-0.4-0.9
		c-0.3-0.2-0.9-0.5-2-0.9c-1.3-0.5-2.2-1-2.5-1.4s-0.5-0.9-0.5-1.5c0-0.8,0.3-1.4,1-1.8c0.6-0.4,1.5-0.7,2.7-0.7
		c1.1,0,2.2,0.2,3.2,0.6l-0.5,1.3c-1.1-0.4-2-0.6-2.8-0.6c-1.4,0-2,0.4-2,1.2c0,0.4,0.1,0.6,0.4,0.8s1,0.5,2,0.9
		c1.2,0.4,2,0.9,2.4,1.3c0.4,0.4,0.6,1,0.6,1.6c0,0.9-0.3,1.5-1,2s-1.6,0.7-2.9,0.7C329.1,248,328,247.8,327.3,247.4z"/>
	<path fill="#205D76" d="M354.6,247.9l-0.3-1.3h-0.1c-0.4,0.6-0.9,0.9-1.4,1.2c-0.5,0.2-1.1,0.3-1.8,0.3c-0.9,0-1.7-0.2-2.2-0.7
		s-0.8-1.2-0.8-2.1c0-1.9,1.5-2.9,4.4-3l1.8-0.1v-0.6c0-1.4-0.7-2-2.1-2c-0.8,0-1.8,0.2-2.8,0.7l-0.5-1.2c1.1-0.6,2.2-0.8,3.3-0.8
		c1.3,0,2.3,0.3,2.8,0.8c0.6,0.5,0.9,1.3,0.9,2.4v6.5L354.6,247.9L354.6,247.9z M354.1,243.2l-1.4,0.1c-1.1,0-1.9,0.2-2.4,0.5
		s-0.7,0.8-0.7,1.4c0,1,0.6,1.5,1.7,1.5c0.8,0,1.5-0.2,2-0.7s0.8-1.1,0.8-2V243.2z"/>
	<path fill="#205D76" d="M232.7,267.9h-0.1c0.1,0.7,0.1,1.2,0.1,1.4v4.1h-1.6v-13.8h1.3l0.2,1.3h0.1c0.6-1,1.6-1.5,2.8-1.5
		s2.1,0.4,2.7,1.3c0.7,0.9,1,2.1,1,3.6c0,1.6-0.3,2.8-1,3.6c-0.7,0.9-1.6,1.3-2.7,1.3C234.3,269.3,233.4,268.8,232.7,267.9z
		 M232.7,264v0.4c0,1.3,0.2,2.2,0.6,2.8c0.4,0.6,1,0.8,1.9,0.8c1.6,0,2.4-1.2,2.4-3.7c0-2.4-0.8-3.6-2.4-3.6c-0.9,0-1.5,0.3-1.9,0.8
		C232.9,262,232.7,262.9,232.7,264z"/>
	<path fill="#205D76" d="M248.1,269.1l-0.3-1.3h-0.1c-0.4,0.6-0.9,0.9-1.4,1.2c-0.5,0.2-1.1,0.3-1.8,0.3c-0.9,0-1.7-0.2-2.2-0.7
		s-0.8-1.2-0.8-2.1c0-1.9,1.5-2.9,4.4-3l1.8-0.1v-0.6c0-1.4-0.7-2-2.1-2c-0.8,0-1.8,0.2-2.8,0.7l-0.5-1.2c1.1-0.6,2.2-0.8,3.3-0.8
		c1.3,0,2.3,0.3,2.8,0.8c0.6,0.5,0.9,1.3,0.9,2.4v6.5L248.1,269.1L248.1,269.1z M247.7,264.5l-1.4,0.1c-1.1,0-1.9,0.2-2.4,0.5
		s-0.7,0.8-0.7,1.4c0,1,0.6,1.5,1.7,1.5c0.8,0,1.5-0.2,2-0.7s0.8-1.1,0.8-2L247.7,264.5L247.7,264.5z"/>
	<path fill="#205D76" d="M260.2,259.8l-0.4,1.4c-0.7-0.3-1.4-0.4-1.9-0.4c-0.9,0-1.7,0.3-2.2,0.8c-0.5,0.5-0.8,1.3-0.8,2.3v5.1h-1.6
		v-9.5h1.3l0.2,1.7h0.1c0.4-0.7,0.9-1.2,1.4-1.5s1.1-0.4,1.9-0.4C258.8,259.5,259.5,259.6,260.2,259.8z"/>
	<path fill="#205D76" d="M269.4,269.1l-0.3-1.3H269c-0.4,0.6-0.9,0.9-1.4,1.2c-0.5,0.2-1.1,0.3-1.8,0.3c-0.9,0-1.7-0.2-2.2-0.7
		s-0.8-1.2-0.8-2.1c0-1.9,1.5-2.9,4.4-3l1.8-0.1v-0.6c0-1.4-0.7-2-2.1-2c-0.8,0-1.8,0.2-2.8,0.7l-0.5-1.2c1.1-0.6,2.2-0.8,3.3-0.8
		c1.3,0,2.3,0.3,2.8,0.8c0.6,0.5,0.9,1.3,0.9,2.4v6.5L269.4,269.1L269.4,269.1z M269,264.5l-1.4,0.1c-1.1,0-1.9,0.2-2.4,0.5
		s-0.7,0.8-0.7,1.4c0,1,0.6,1.5,1.7,1.5c0.8,0,1.5-0.2,2-0.7s0.8-1.1,0.8-2V264.5z"/>
	<path fill="#205D76" d="M282.8,259.6v1l-1.7,0.2c0.4,0.5,0.6,1.1,0.6,1.8c0,0.9-0.3,1.7-0.9,2.2c-0.6,0.6-1.5,0.8-2.6,0.8
		c-0.3,0-0.6,0-0.7-0.1c-0.6,0.3-0.9,0.7-0.9,1.2s0.5,0.7,1.4,0.7h1.6c1,0,1.8,0.2,2.3,0.7c0.5,0.4,0.8,1.1,0.8,1.9
		c0,2.2-1.6,3.3-4.9,3.3c-1.3,0-2.2-0.2-2.9-0.7c-0.7-0.5-1-1.1-1-2c0-1.2,0.7-2,2.1-2.3c-0.6-0.3-0.8-0.7-0.8-1.3
		c0-0.6,0.4-1.2,1.2-1.7c-0.5-0.2-0.9-0.6-1.2-1.1c-0.3-0.5-0.4-1-0.4-1.6c0-1.1,0.3-1.9,0.9-2.4c0.6-0.6,1.5-0.9,2.6-0.9
		c0.5,0,0.9,0.1,1.3,0.2h3.2V259.6z M279.1,269h-1.6c-1.3,0-2,0.6-2,1.7c0,1,0.8,1.5,2.3,1.5c2.3,0,3.4-0.6,3.4-1.9
		c0-0.5-0.1-0.8-0.4-1C280.5,269.1,279.9,269,279.1,269z M278.2,264.6c1.3,0,1.9-0.7,1.9-2c0-1.4-0.6-2.1-1.9-2.1s-1.9,0.7-1.9,2.1
		C276.2,264,276.9,264.6,278.2,264.6z"/>
	<path fill="#205D76" d="M292.9,259.8l-0.4,1.4c-0.7-0.3-1.4-0.4-1.9-0.4c-0.9,0-1.7,0.3-2.2,0.8s-0.8,1.3-0.8,2.3v5.1H286v-9.5h1.3
		l0.2,1.7h0.1c0.4-0.7,0.9-1.2,1.4-1.5s1.1-0.4,1.9-0.4C291.5,259.5,292.2,259.6,292.9,259.8z"/>
	<path fill="#205D76" d="M302.1,269.1l-0.3-1.3h-0.1c-0.4,0.6-0.9,0.9-1.4,1.2c-0.5,0.2-1.1,0.3-1.8,0.3c-0.9,0-1.7-0.2-2.2-0.7
		s-0.8-1.2-0.8-2.1c0-1.9,1.5-2.9,4.4-3l1.8-0.1v-0.6c0-1.4-0.7-2-2.1-2c-0.8,0-1.8,0.2-2.8,0.7l-0.5-1.2c1.1-0.6,2.2-0.8,3.3-0.8
		c1.3,0,2.3,0.3,2.8,0.8c0.6,0.5,0.9,1.3,0.9,2.4v6.5L302.1,269.1L302.1,269.1z M301.7,264.5l-1.4,0.1c-1.1,0-1.9,0.2-2.4,0.5
		s-0.7,0.8-0.7,1.4c0,1,0.6,1.5,1.7,1.5c0.8,0,1.5-0.2,2-0.7s0.8-1.1,0.8-2V264.5z"/>
	<path fill="#205D76" d="M307.9,267.9h-0.1c0.1,0.7,0.1,1.2,0.1,1.4v4.1h-1.6v-13.8h1.3l0.2,1.3h0.1c0.6-1,1.6-1.5,2.8-1.5
		c1.2,0,2.1,0.4,2.7,1.3c0.7,0.9,1,2.1,1,3.6c0,1.6-0.3,2.8-1,3.6c-0.7,0.9-1.6,1.3-2.7,1.3C309.5,269.3,308.6,268.8,307.9,267.9z
		 M307.9,264v0.4c0,1.3,0.2,2.2,0.6,2.8c0.4,0.6,1,0.8,1.9,0.8c1.6,0,2.4-1.2,2.4-3.7c0-2.4-0.8-3.6-2.4-3.6c-0.9,0-1.5,0.3-1.9,0.8
		C308.2,262,308,262.9,307.9,264z"/>
	<path fill="#205D76" d="M323.3,269.1V263c0-1.5-0.7-2.3-2.1-2.3c-1.8,0-2.7,1.1-2.7,3.4v4.9h-1.6v-13.5h1.6v4l-0.1,1.2h0.1
		c0.6-1,1.6-1.5,2.9-1.5c2.2,0,3.4,1.2,3.4,3.5v6.2h-1.5V269.1z"/>
	<path fill="#205D76" d="M331.6,267c0.7,0,1.1,0.4,1.1,1.2c0,0.8-0.4,1.2-1.1,1.2s-1.1-0.4-1.1-1.2C330.5,267.4,330.9,267,331.6,267
		z M332.1,265.5h-1l-0.4-9.1h1.9L332.1,265.5z"/>
	<path fill="#205D76" d="M346.2,267.2l-8-3.9v-0.9l8-3.9v1.4l-6.2,3l6.2,3V267.2z"/>
	<path fill="#205D76" d="M356.3,256.5l-5.4,12.7h-1.5l5.4-12.7H356.3z"/>
	<path fill="#205D76" d="M361.1,267.9H361c0.1,0.7,0.1,1.2,0.1,1.4v4.1h-1.6v-13.8h1.3l0.2,1.3h0.1c0.6-1,1.6-1.5,2.8-1.5
		c1.2,0,2.1,0.4,2.7,1.3c0.7,0.9,1,2.1,1,3.6c0,1.6-0.3,2.8-1,3.6c-0.7,0.9-1.6,1.3-2.7,1.3C362.7,269.3,361.8,268.8,361.1,267.9z
		 M361.1,264v0.4c0,1.3,0.2,2.2,0.6,2.8c0.4,0.6,1,0.8,1.9,0.8c1.6,0,2.4-1.2,2.4-3.7c0-2.4-0.8-3.6-2.4-3.6c-0.9,0-1.5,0.3-1.9,0.8
		C361.4,262,361.2,262.9,361.1,264z"/>
	<path fill="#205D76" d="M370.2,265.8l6.2-3l-6.2-3v-1.4l8,3.9v0.9l-8,3.9V265.8z"/>
	<path fill="#205D76" d="M207.1,309.8l-8-3.9V305l8-3.9v1.4l-6.2,3l6.2,3V309.8z"/>
	<path fill="#205D76" d="M217.3,299l-5.4,12.7h-1.5l5.4-12.7H217.3z"/>
	<path fill="#205D76" d="M222.1,310.5H222l-0.3,1.2h-1.2v-13.5h1.6v3.3c0,0.5,0,1.1-0.1,2h0.1c0.6-0.9,1.5-1.4,2.8-1.4
		c1.2,0,2.1,0.4,2.7,1.3c0.7,0.9,1,2.1,1,3.6c0,1.6-0.3,2.8-1,3.6c-0.7,0.9-1.6,1.3-2.7,1.3C223.6,311.9,222.7,311.4,222.1,310.5z
		 M222.1,306.9c0,1.3,0.2,2.2,0.6,2.8c0.4,0.6,1,0.8,1.9,0.8c1.6,0,2.4-1.2,2.4-3.7c0-2.4-0.8-3.6-2.4-3.6c-0.9,0-1.5,0.3-1.9,0.8
		C222.2,304.7,222.1,305.6,222.1,306.9z"/>
	<path fill="#205D76" d="M235,311.9c-1.2,0-2.3-0.4-3.1-1.3s-1.2-2.1-1.2-3.6s0.4-2.7,1.2-3.6s1.8-1.3,3.2-1.3
		c1.3,0,2.3,0.4,3.1,1.3s1.2,2.1,1.2,3.6s-0.4,2.7-1.2,3.6C237.4,311.4,236.4,311.9,235,311.9z M235.1,310.6c1.8,0,2.7-1.2,2.7-3.6
		s-0.9-3.6-2.7-3.6s-2.7,1.2-2.7,3.6C232.4,309.3,233.3,310.6,235.1,310.6z"/>
	<path fill="#205D76" d="M248.2,310.4L248.2,310.4c-0.7,1-1.7,1.4-2.9,1.4s-2.1-0.4-2.7-1.3c-0.7-0.9-1-2.1-1-3.6
		c0-1.6,0.3-2.8,1-3.6c0.7-0.9,1.6-1.3,2.7-1.3c1.2,0,2.1,0.5,2.8,1.4h0.1c-0.1-0.7-0.1-1.2-0.1-1.4v-3.8h1.6v13.5h-1.3L248.2,310.4
		z M248.1,307.3V307c0-1.3-0.2-2.2-0.6-2.8c-0.4-0.6-1-0.8-1.9-0.8c-1.6,0-2.4,1.2-2.4,3.7c0,2.4,0.8,3.6,2.4,3.6
		c0.9,0,1.5-0.3,1.9-0.8C247.9,309.3,248.1,308.5,248.1,307.3z"/>
	<path fill="#205D76" d="M251.7,302.2h1.6l2.3,5.7c0.5,1.2,0.7,2,0.8,2.5h0.1c0.1-0.6,0.4-1.5,0.8-2.5l2.1-5.6h1.6l-4.1,10.7
		c-0.4,1-0.8,1.8-1.4,2.3c-0.5,0.5-1.2,0.8-2.1,0.8c-0.5,0-1-0.1-1.5-0.1v-1.3c0.4,0.1,0.8,0.1,1.2,0.1c0.6,0,1-0.1,1.3-0.4
		c0.3-0.2,0.6-0.6,0.8-1.2l0.5-1.3L251.7,302.2z"/>
	<path fill="#205D76" d="M263,308.4l6.2-3l-6.2-3V301l8,3.9v0.9l-8,3.9V308.4z"/>
	<path fill="#205D76" d="M185.9,352.3l-8-3.9v-0.9l8-3.9v1.4l-6.2,3l6.2,3V352.3z"/>
	<path fill="#205D76" d="M196,341.6l-5.4,12.7H189l5.4-12.7H196z"/>
	<path fill="#205D76" d="M205.5,354.2v-6.1c0-1.5-0.7-2.3-2.1-2.3c-1.8,0-2.7,1.1-2.7,3.4v4.9h-1.6v-13.5h1.6v4l-0.1,1.2h0.1
		c0.6-1,1.6-1.5,2.9-1.5c2.2,0,3.4,1.2,3.4,3.5v6.2h-1.5V354.2z"/>
	<path fill="#205D76" d="M217.3,352.9v1.2c-0.8,0.2-1.5,0.3-2.2,0.3c-2.1,0-3.1-1-3.1-3v-5.5h-2.3v-0.8l2.3-0.4l0.7-2.5h0.9v2.5h3.8
		v1.2h-3.8v5.5c0,1.1,0.6,1.7,1.7,1.7C215.8,353.1,216.5,353.1,217.3,352.9z"/>
	<path fill="#205D76" d="M227.6,354.2v-6.1c0-0.8-0.1-1.4-0.2-1.8c-0.2-0.3-0.4-0.5-0.8-0.5c-0.5,0-0.9,0.2-1.1,0.7
		c-0.2,0.5-0.3,1.3-0.3,2.4v5.2h-1.4V348c0-1.5-0.4-2.3-1.1-2.3c-0.5,0-0.8,0.2-1,0.7s-0.3,1.4-0.3,2.8v4.9H220v-9.5h1.1l0.2,1.3
		h0.1c0.4-1,1-1.5,1.7-1.5c0.9,0,1.6,0.5,1.8,1.6h0.1c0.4-1.1,1.1-1.6,1.9-1.6c0.7,0,1.3,0.3,1.6,0.8s0.5,1.4,0.5,2.7v6.2
		L227.6,354.2L227.6,354.2z"/>
	<path fill="#205D76" d="M234.4,342l-2.3-0.2v-1.1h3.9V353l3,0.2v1.1h-7.6v-1.1l3-0.2L234.4,342L234.4,342z"/>
	<path fill="#205D76" d="M241.7,350.9l6.2-3l-6.2-3v-1.4l8,3.9v0.9l-8,3.9V350.9z"/>
</g>
</svg>
